solid ASCII
  facet normal 9.578263e-01 -2.873479e-01 0.000000e+00
    outer loop
      vertex   2.000000e+01 -5.000000e+00 -2.000000e+01
      vertex   5.000000e+00 -5.500000e+01 -2.000000e+01
      vertex   2.000000e+01 -5.000000e+00 -2.500000e+01
    endloop
  endfacet
  facet normal 9.578263e-01 -2.873479e-01 0.000000e+00
    outer loop
      vertex   2.000000e+01 -5.000000e+00 -2.500000e+01
      vertex   5.000000e+00 -5.500000e+01 -2.000000e+01
      vertex   5.000000e+00 -5.500000e+01 -2.500000e+01
    endloop
  endfacet
  facet normal 1.000000e+00 -0.000000e+00 0.000000e+00
    outer loop
      vertex   2.000000e+01 -5.000000e+00 -2.000000e+01
      vertex   2.000000e+01 -5.000000e+00 -2.500000e+01
      vertex   2.000000e+01 7.500000e+01 -2.000000e+01
    endloop
  endfacet
  facet normal 1.000000e+00 0.000000e+00 0.000000e+00
    outer loop
      vertex   2.000000e+01 7.500000e+01 -2.000000e+01
      vertex   2.000000e+01 -5.000000e+00 -2.500000e+01
      vertex   2.000000e+01 7.500000e+01 -2.500000e+01
    endloop
  endfacet
  facet normal 0.000000e+00 0.000000e+00 1.000000e+00
    outer loop
      vertex   2.000000e+01 -5.000000e+00 -2.000000e+01
      vertex   1.367505e+01 1.083628e+01 -2.000000e+01
      vertex   5.000000e+00 -5.500000e+01 -2.000000e+01
    endloop
  endfacet
  facet normal 0.000000e+00 0.000000e+00 1.000000e+00
    outer loop
      vertex   5.000000e+00 -5.500000e+01 -2.000000e+01
      vertex   1.367505e+01 1.083628e+01 -2.000000e+01
      vertex   1.340746e+01 1.067231e+01 -2.000000e+01
    endloop
  endfacet
  facet normal 0.000000e+00 0.000000e+00 1.000000e+00
    outer loop
      vertex   5.000000e+00 -5.500000e+01 -2.000000e+01
      vertex   1.340746e+01 1.067231e+01 -2.000000e+01
      vertex   1.311751e+01 1.055221e+01 -2.000000e+01
    endloop
  endfacet
  facet normal 0.000000e+00 0.000000e+00 1.000000e+00
    outer loop
      vertex   2.000000e+01 7.500000e+01 -2.000000e+01
      vertex   1.449998e+01 3.498916e+01 -2.000000e+01
      vertex   2.000000e+01 -5.000000e+00 -2.000000e+01
    endloop
  endfacet
  facet normal 0.000000e+00 0.000000e+00 1.000000e+00
    outer loop
      vertex   2.000000e+01 -5.000000e+00 -2.000000e+01
      vertex   1.449998e+01 3.498916e+01 -2.000000e+01
      vertex   1.449948e+01 2.745432e+01 -2.000000e+01
    endloop
  endfacet
  facet normal 0.000000e+00 0.000000e+00 1.000000e+00
    outer loop
      vertex   2.000000e+01 -5.000000e+00 -2.000000e+01
      vertex   1.449948e+01 2.745432e+01 -2.000000e+01
      vertex   1.449948e+01 1.245432e+01 -2.000000e+01
    endloop
  endfacet
  facet normal -0.000000e+00 0.000000e+00 1.000000e+00
    outer loop
      vertex   5.000000e+00 7.500000e+01 -2.000000e+01
      vertex   1.233534e+01 5.199321e+01 -2.000000e+01
      vertex   2.000000e+01 7.500000e+01 -2.000000e+01
    endloop
  endfacet
  facet normal 0.000000e+00 0.000000e+00 1.000000e+00
    outer loop
      vertex   2.000000e+01 7.500000e+01 -2.000000e+01
      vertex   1.233534e+01 5.199321e+01 -2.000000e+01
      vertex   1.266466e+01 5.199321e+01 -2.000000e+01
    endloop
  endfacet
  facet normal 0.000000e+00 0.000000e+00 1.000000e+00
    outer loop
      vertex   2.000000e+01 7.500000e+01 -2.000000e+01
      vertex   1.266466e+01 5.199321e+01 -2.000000e+01
      vertex   1.298951e+01 5.193917e+01 -2.000000e+01
    endloop
  endfacet
  facet normal 0.000000e+00 0.000000e+00 1.000000e+00
    outer loop
      vertex   5.000000e+00 -5.500000e+01 -2.000000e+01
      vertex   1.049948e+01 1.245432e+01 -2.000000e+01
      vertex   5.000000e+00 7.500000e+01 -2.000000e+01
    endloop
  endfacet
  facet normal 0.000000e+00 0.000000e+00 1.000000e+00
    outer loop
      vertex   5.000000e+00 7.500000e+01 -2.000000e+01
      vertex   1.049948e+01 1.245432e+01 -2.000000e+01
      vertex   1.049948e+01 2.745432e+01 -2.000000e+01
    endloop
  endfacet
  facet normal 0.000000e+00 0.000000e+00 1.000000e+00
    outer loop
      vertex   5.000000e+00 7.500000e+01 -2.000000e+01
      vertex   1.049948e+01 2.745432e+01 -2.000000e+01
      vertex   1.049998e+01 3.498916e+01 -2.000000e+01
    endloop
  endfacet
  facet normal 0.000000e+00 0.000000e+00 1.000000e+00
    outer loop
      vertex   1.049998e+01 3.498916e+01 -2.000000e+01
      vertex   1.049948e+01 2.745432e+01 -2.000000e+01
      vertex   1.051861e+01 2.777220e+01 -2.000000e+01
    endloop
  endfacet
  facet normal 0.000000e+00 0.000000e+00 1.000000e+00
    outer loop
      vertex   1.049998e+01 3.498916e+01 -2.000000e+01
      vertex   1.051861e+01 2.777220e+01 -2.000000e+01
      vertex   1.052460e+01 3.467629e+01 -2.000000e+01
    endloop
  endfacet
  facet normal 0.000000e+00 0.000000e+00 1.000000e+00
    outer loop
      vertex   1.052460e+01 3.467629e+01 -2.000000e+01
      vertex   1.051861e+01 2.777220e+01 -2.000000e+01
      vertex   1.058691e+01 2.808317e+01 -2.000000e+01
    endloop
  endfacet
  facet normal 0.000000e+00 0.000000e+00 1.000000e+00
    outer loop
      vertex   1.052460e+01 3.467629e+01 -2.000000e+01
      vertex   1.058691e+01 2.808317e+01 -2.000000e+01
      vertex   1.059786e+01 3.437113e+01 -2.000000e+01
    endloop
  endfacet
  facet normal 0.000000e+00 0.000000e+00 1.000000e+00
    outer loop
      vertex   1.059786e+01 3.437113e+01 -2.000000e+01
      vertex   1.058691e+01 2.808317e+01 -2.000000e+01
      vertex   1.070370e+01 2.837937e+01 -2.000000e+01
    endloop
  endfacet
  facet normal 0.000000e+00 0.000000e+00 1.000000e+00
    outer loop
      vertex   1.059786e+01 3.437113e+01 -2.000000e+01
      vertex   1.070370e+01 2.837937e+01 -2.000000e+01
      vertex   1.071796e+01 3.408118e+01 -2.000000e+01
    endloop
  endfacet
  facet normal 0.000000e+00 0.000000e+00 1.000000e+00
    outer loop
      vertex   1.071796e+01 3.408118e+01 -2.000000e+01
      vertex   1.070370e+01 2.837937e+01 -2.000000e+01
      vertex   1.086601e+01 2.865329e+01 -2.000000e+01
    endloop
  endfacet
  facet normal 0.000000e+00 0.000000e+00 1.000000e+00
    outer loop
      vertex   1.071796e+01 3.408118e+01 -2.000000e+01
      vertex   1.086601e+01 2.865329e+01 -2.000000e+01
      vertex   1.088194e+01 3.381359e+01 -2.000000e+01
    endloop
  endfacet
  facet normal 0.000000e+00 0.000000e+00 1.000000e+00
    outer loop
      vertex   1.088194e+01 3.381359e+01 -2.000000e+01
      vertex   1.086601e+01 2.865329e+01 -2.000000e+01
      vertex   1.106973e+01 2.889797e+01 -2.000000e+01
    endloop
  endfacet
  facet normal 0.000000e+00 0.000000e+00 1.000000e+00
    outer loop
      vertex   1.088194e+01 3.381359e+01 -2.000000e+01
      vertex   1.106973e+01 2.889797e+01 -2.000000e+01
      vertex   1.108576e+01 3.357495e+01 -2.000000e+01
    endloop
  endfacet
  facet normal 0.000000e+00 0.000000e+00 1.000000e+00
    outer loop
      vertex   1.108576e+01 3.357495e+01 -2.000000e+01
      vertex   1.106973e+01 2.889797e+01 -2.000000e+01
      vertex   1.130969e+01 2.910723e+01 -2.000000e+01
    endloop
  endfacet
  facet normal 0.000000e+00 0.000000e+00 1.000000e+00
    outer loop
      vertex   1.108576e+01 3.357495e+01 -2.000000e+01
      vertex   1.130969e+01 2.910723e+01 -2.000000e+01
      vertex   1.132441e+01 3.337113e+01 -2.000000e+01
    endloop
  endfacet
  facet normal 0.000000e+00 0.000000e+00 1.000000e+00
    outer loop
      vertex   1.132441e+01 3.337113e+01 -2.000000e+01
      vertex   1.130969e+01 2.910723e+01 -2.000000e+01
      vertex   1.157983e+01 2.927575e+01 -2.000000e+01
    endloop
  endfacet
  facet normal 0.000000e+00 0.000000e+00 1.000000e+00
    outer loop
      vertex   1.132441e+01 3.337113e+01 -2.000000e+01
      vertex   1.157983e+01 2.927575e+01 -2.000000e+01
      vertex   1.159200e+01 3.320715e+01 -2.000000e+01
    endloop
  endfacet
  facet normal 0.000000e+00 0.000000e+00 1.000000e+00
    outer loop
      vertex   1.159200e+01 3.320715e+01 -2.000000e+01
      vertex   1.157983e+01 2.927575e+01 -2.000000e+01
      vertex   1.187328e+01 2.939927e+01 -2.000000e+01
    endloop
  endfacet
  facet normal 0.000000e+00 0.000000e+00 1.000000e+00
    outer loop
      vertex   1.159200e+01 3.320715e+01 -2.000000e+01
      vertex   1.187328e+01 2.939927e+01 -2.000000e+01
      vertex   1.188194e+01 3.308705e+01 -2.000000e+01
    endloop
  endfacet
  facet normal 0.000000e+00 0.000000e+00 1.000000e+00
    outer loop
      vertex   1.188194e+01 3.308705e+01 -2.000000e+01
      vertex   1.187328e+01 2.939927e+01 -2.000000e+01
      vertex   1.218262e+01 2.947466e+01 -2.000000e+01
    endloop
  endfacet
  facet normal 0.000000e+00 0.000000e+00 1.000000e+00
    outer loop
      vertex   1.188194e+01 3.308705e+01 -2.000000e+01
      vertex   1.218262e+01 2.947466e+01 -2.000000e+01
      vertex   1.218711e+01 3.301378e+01 -2.000000e+01
    endloop
  endfacet
  facet normal 0.000000e+00 0.000000e+00 1.000000e+00
    outer loop
      vertex   1.218711e+01 3.301378e+01 -2.000000e+01
      vertex   1.218262e+01 2.947466e+01 -2.000000e+01
      vertex   1.250000e+01 2.950000e+01 -2.000000e+01
    endloop
  endfacet
  facet normal 0.000000e+00 0.000000e+00 1.000000e+00
    outer loop
      vertex   1.218711e+01 3.301378e+01 -2.000000e+01
      vertex   1.250000e+01 2.950000e+01 -2.000000e+01
      vertex   1.249998e+01 3.298916e+01 -2.000000e+01
    endloop
  endfacet
  facet normal -0.000000e+00 0.000000e+00 1.000000e+00
    outer loop
      vertex   1.249998e+01 3.298916e+01 -2.000000e+01
      vertex   1.250000e+01 2.950000e+01 -2.000000e+01
      vertex   1.281285e+01 3.301378e+01 -2.000000e+01
    endloop
  endfacet
  facet normal 0.000000e+00 0.000000e+00 1.000000e+00
    outer loop
      vertex   1.281285e+01 3.301378e+01 -2.000000e+01
      vertex   1.250000e+01 2.950000e+01 -2.000000e+01
      vertex   1.281738e+01 2.947466e+01 -2.000000e+01
    endloop
  endfacet
  facet normal -0.000000e+00 0.000000e+00 1.000000e+00
    outer loop
      vertex   1.281285e+01 3.301378e+01 -2.000000e+01
      vertex   1.281738e+01 2.947466e+01 -2.000000e+01
      vertex   1.311801e+01 3.308705e+01 -2.000000e+01
    endloop
  endfacet
  facet normal 0.000000e+00 0.000000e+00 1.000000e+00
    outer loop
      vertex   1.311801e+01 3.308705e+01 -2.000000e+01
      vertex   1.281738e+01 2.947466e+01 -2.000000e+01
      vertex   1.312672e+01 2.939927e+01 -2.000000e+01
    endloop
  endfacet
  facet normal -0.000000e+00 0.000000e+00 1.000000e+00
    outer loop
      vertex   1.311801e+01 3.308705e+01 -2.000000e+01
      vertex   1.312672e+01 2.939927e+01 -2.000000e+01
      vertex   1.340796e+01 3.320715e+01 -2.000000e+01
    endloop
  endfacet
  facet normal 0.000000e+00 0.000000e+00 1.000000e+00
    outer loop
      vertex   1.340796e+01 3.320715e+01 -2.000000e+01
      vertex   1.312672e+01 2.939927e+01 -2.000000e+01
      vertex   1.342017e+01 2.927575e+01 -2.000000e+01
    endloop
  endfacet
  facet normal -0.000000e+00 0.000000e+00 1.000000e+00
    outer loop
      vertex   1.340796e+01 3.320715e+01 -2.000000e+01
      vertex   1.342017e+01 2.927575e+01 -2.000000e+01
      vertex   1.367555e+01 3.337113e+01 -2.000000e+01
    endloop
  endfacet
  facet normal 0.000000e+00 0.000000e+00 1.000000e+00
    outer loop
      vertex   1.367555e+01 3.337113e+01 -2.000000e+01
      vertex   1.342017e+01 2.927575e+01 -2.000000e+01
      vertex   1.369031e+01 2.910723e+01 -2.000000e+01
    endloop
  endfacet
  facet normal -0.000000e+00 0.000000e+00 1.000000e+00
    outer loop
      vertex   1.367555e+01 3.337113e+01 -2.000000e+01
      vertex   1.369031e+01 2.910723e+01 -2.000000e+01
      vertex   1.391419e+01 3.357495e+01 -2.000000e+01
    endloop
  endfacet
  facet normal 0.000000e+00 0.000000e+00 1.000000e+00
    outer loop
      vertex   1.391419e+01 3.357495e+01 -2.000000e+01
      vertex   1.369031e+01 2.910723e+01 -2.000000e+01
      vertex   1.393027e+01 2.889797e+01 -2.000000e+01
    endloop
  endfacet
  facet normal -0.000000e+00 0.000000e+00 1.000000e+00
    outer loop
      vertex   1.391419e+01 3.357495e+01 -2.000000e+01
      vertex   1.393027e+01 2.889797e+01 -2.000000e+01
      vertex   1.411801e+01 3.381359e+01 -2.000000e+01
    endloop
  endfacet
  facet normal 0.000000e+00 0.000000e+00 1.000000e+00
    outer loop
      vertex   1.411801e+01 3.381359e+01 -2.000000e+01
      vertex   1.393027e+01 2.889797e+01 -2.000000e+01
      vertex   1.413399e+01 2.865329e+01 -2.000000e+01
    endloop
  endfacet
  facet normal -0.000000e+00 0.000000e+00 1.000000e+00
    outer loop
      vertex   1.411801e+01 3.381359e+01 -2.000000e+01
      vertex   1.413399e+01 2.865329e+01 -2.000000e+01
      vertex   1.428199e+01 3.408118e+01 -2.000000e+01
    endloop
  endfacet
  facet normal 0.000000e+00 0.000000e+00 1.000000e+00
    outer loop
      vertex   1.428199e+01 3.408118e+01 -2.000000e+01
      vertex   1.413399e+01 2.865329e+01 -2.000000e+01
      vertex   1.429630e+01 2.837937e+01 -2.000000e+01
    endloop
  endfacet
  facet normal -0.000000e+00 0.000000e+00 1.000000e+00
    outer loop
      vertex   1.428199e+01 3.408118e+01 -2.000000e+01
      vertex   1.429630e+01 2.837937e+01 -2.000000e+01
      vertex   1.440209e+01 3.437113e+01 -2.000000e+01
    endloop
  endfacet
  facet normal 0.000000e+00 0.000000e+00 1.000000e+00
    outer loop
      vertex   1.440209e+01 3.437113e+01 -2.000000e+01
      vertex   1.429630e+01 2.837937e+01 -2.000000e+01
      vertex   1.441309e+01 2.808317e+01 -2.000000e+01
    endloop
  endfacet
  facet normal -0.000000e+00 0.000000e+00 1.000000e+00
    outer loop
      vertex   1.440209e+01 3.437113e+01 -2.000000e+01
      vertex   1.441309e+01 2.808317e+01 -2.000000e+01
      vertex   1.447535e+01 3.467629e+01 -2.000000e+01
    endloop
  endfacet
  facet normal 0.000000e+00 0.000000e+00 1.000000e+00
    outer loop
      vertex   1.447535e+01 3.467629e+01 -2.000000e+01
      vertex   1.441309e+01 2.808317e+01 -2.000000e+01
      vertex   1.448139e+01 2.777220e+01 -2.000000e+01
    endloop
  endfacet
  facet normal -0.000000e+00 0.000000e+00 1.000000e+00
    outer loop
      vertex   1.447535e+01 3.467629e+01 -2.000000e+01
      vertex   1.448139e+01 2.777220e+01 -2.000000e+01
      vertex   1.449998e+01 3.498916e+01 -2.000000e+01
    endloop
  endfacet
  facet normal 0.000000e+00 0.000000e+00 1.000000e+00
    outer loop
      vertex   1.449998e+01 3.498916e+01 -2.000000e+01
      vertex   1.448139e+01 2.777220e+01 -2.000000e+01
      vertex   1.449948e+01 2.745432e+01 -2.000000e+01
    endloop
  endfacet
  facet normal -0.000000e+00 0.000000e+00 1.000000e+00
    outer loop
      vertex   1.447130e+01 5.033761e+01 -2.000000e+01
      vertex   1.449998e+01 5.000955e+01 -2.000000e+01
      vertex   2.000000e+01 7.500000e+01 -2.000000e+01
    endloop
  endfacet
  facet normal 0.000000e+00 0.000000e+00 1.000000e+00
    outer loop
      vertex   2.000000e+01 7.500000e+01 -2.000000e+01
      vertex   1.449998e+01 5.000955e+01 -2.000000e+01
      vertex   1.449998e+01 3.498916e+01 -2.000000e+01
    endloop
  endfacet
  facet normal 0.000000e+00 -0.000000e+00 1.000000e+00
    outer loop
      vertex   1.049998e+01 3.498916e+01 -2.000000e+01
      vertex   1.049998e+01 5.000955e+01 -2.000000e+01
      vertex   5.000000e+00 7.500000e+01 -2.000000e+01
    endloop
  endfacet
  facet normal 0.000000e+00 0.000000e+00 1.000000e+00
    outer loop
      vertex   5.000000e+00 7.500000e+01 -2.000000e+01
      vertex   1.049998e+01 5.000955e+01 -2.000000e+01
      vertex   1.052870e+01 5.033761e+01 -2.000000e+01
    endloop
  endfacet
  facet normal 0.000000e+00 0.000000e+00 1.000000e+00
    outer loop
      vertex   5.000000e+00 7.500000e+01 -2.000000e+01
      vertex   1.052870e+01 5.033761e+01 -2.000000e+01
      vertex   1.061083e+01 5.065652e+01 -2.000000e+01
    endloop
  endfacet
  facet normal 0.000000e+00 0.000000e+00 1.000000e+00
    outer loop
      vertex   1.049998e+01 5.000955e+01 -2.000000e+01
      vertex   1.050002e+01 5.000955e+01 -2.000000e+01
      vertex   1.052870e+01 5.033761e+01 -2.000000e+01
    endloop
  endfacet
  facet normal 0.000000e+00 -0.000000e+00 1.000000e+00
    outer loop
      vertex   1.061083e+01 5.065652e+01 -2.000000e+01
      vertex   1.074417e+01 5.095764e+01 -2.000000e+01
      vertex   5.000000e+00 7.500000e+01 -2.000000e+01
    endloop
  endfacet
  facet normal 0.000000e+00 0.000000e+00 1.000000e+00
    outer loop
      vertex   5.000000e+00 7.500000e+01 -2.000000e+01
      vertex   1.074417e+01 5.095764e+01 -2.000000e+01
      vertex   1.092512e+01 5.123278e+01 -2.000000e+01
    endloop
  endfacet
  facet normal 0.000000e+00 0.000000e+00 1.000000e+00
    outer loop
      vertex   5.000000e+00 7.500000e+01 -2.000000e+01
      vertex   1.092512e+01 5.123278e+01 -2.000000e+01
      vertex   1.114877e+01 5.147451e+01 -2.000000e+01
    endloop
  endfacet
  facet normal 0.000000e+00 -0.000000e+00 1.000000e+00
    outer loop
      vertex   1.114877e+01 5.147451e+01 -2.000000e+01
      vertex   1.140905e+01 5.167626e+01 -2.000000e+01
      vertex   5.000000e+00 7.500000e+01 -2.000000e+01
    endloop
  endfacet
  facet normal 0.000000e+00 0.000000e+00 1.000000e+00
    outer loop
      vertex   5.000000e+00 7.500000e+01 -2.000000e+01
      vertex   1.140905e+01 5.167626e+01 -2.000000e+01
      vertex   1.169891e+01 5.183256e+01 -2.000000e+01
    endloop
  endfacet
  facet normal 0.000000e+00 0.000000e+00 1.000000e+00
    outer loop
      vertex   5.000000e+00 7.500000e+01 -2.000000e+01
      vertex   1.169891e+01 5.183256e+01 -2.000000e+01
      vertex   1.201049e+01 5.193917e+01 -2.000000e+01
    endloop
  endfacet
  facet normal 0.000000e+00 -0.000000e+00 1.000000e+00
    outer loop
      vertex   1.201049e+01 5.193917e+01 -2.000000e+01
      vertex   1.233534e+01 5.199321e+01 -2.000000e+01
      vertex   5.000000e+00 7.500000e+01 -2.000000e+01
    endloop
  endfacet
  facet normal -0.000000e+00 0.000000e+00 1.000000e+00
    outer loop
      vertex   1.298951e+01 5.193917e+01 -2.000000e+01
      vertex   1.330109e+01 5.183256e+01 -2.000000e+01
      vertex   2.000000e+01 7.500000e+01 -2.000000e+01
    endloop
  endfacet
  facet normal 0.000000e+00 0.000000e+00 1.000000e+00
    outer loop
      vertex   2.000000e+01 7.500000e+01 -2.000000e+01
      vertex   1.330109e+01 5.183256e+01 -2.000000e+01
      vertex   1.359095e+01 5.167626e+01 -2.000000e+01
    endloop
  endfacet
  facet normal 0.000000e+00 0.000000e+00 1.000000e+00
    outer loop
      vertex   2.000000e+01 7.500000e+01 -2.000000e+01
      vertex   1.359095e+01 5.167626e+01 -2.000000e+01
      vertex   1.385123e+01 5.147451e+01 -2.000000e+01
    endloop
  endfacet
  facet normal -0.000000e+00 0.000000e+00 1.000000e+00
    outer loop
      vertex   1.385123e+01 5.147451e+01 -2.000000e+01
      vertex   1.407488e+01 5.123278e+01 -2.000000e+01
      vertex   2.000000e+01 7.500000e+01 -2.000000e+01
    endloop
  endfacet
  facet normal 0.000000e+00 0.000000e+00 1.000000e+00
    outer loop
      vertex   2.000000e+01 7.500000e+01 -2.000000e+01
      vertex   1.407488e+01 5.123278e+01 -2.000000e+01
      vertex   1.425583e+01 5.095764e+01 -2.000000e+01
    endloop
  endfacet
  facet normal 0.000000e+00 0.000000e+00 1.000000e+00
    outer loop
      vertex   2.000000e+01 7.500000e+01 -2.000000e+01
      vertex   1.425583e+01 5.095764e+01 -2.000000e+01
      vertex   1.438917e+01 5.065652e+01 -2.000000e+01
    endloop
  endfacet
  facet normal -0.000000e+00 0.000000e+00 1.000000e+00
    outer loop
      vertex   1.438917e+01 5.065652e+01 -2.000000e+01
      vertex   1.447130e+01 5.033761e+01 -2.000000e+01
      vertex   2.000000e+01 7.500000e+01 -2.000000e+01
    endloop
  endfacet
  facet normal 0.000000e+00 0.000000e+00 1.000000e+00
    outer loop
      vertex   1.449948e+01 1.245432e+01 -2.000000e+01
      vertex   1.447486e+01 1.214145e+01 -2.000000e+01
      vertex   2.000000e+01 -5.000000e+00 -2.000000e+01
    endloop
  endfacet
  facet normal 0.000000e+00 0.000000e+00 1.000000e+00
    outer loop
      vertex   2.000000e+01 -5.000000e+00 -2.000000e+01
      vertex   1.447486e+01 1.214145e+01 -2.000000e+01
      vertex   1.440159e+01 1.183628e+01 -2.000000e+01
    endloop
  endfacet
  facet normal 0.000000e+00 0.000000e+00 1.000000e+00
    outer loop
      vertex   2.000000e+01 -5.000000e+00 -2.000000e+01
      vertex   1.440159e+01 1.183628e+01 -2.000000e+01
      vertex   1.428149e+01 1.154634e+01 -2.000000e+01
    endloop
  endfacet
  facet normal 0.000000e+00 0.000000e+00 1.000000e+00
    outer loop
      vertex   1.428149e+01 1.154634e+01 -2.000000e+01
      vertex   1.411751e+01 1.127875e+01 -2.000000e+01
      vertex   2.000000e+01 -5.000000e+00 -2.000000e+01
    endloop
  endfacet
  facet normal 0.000000e+00 0.000000e+00 1.000000e+00
    outer loop
      vertex   2.000000e+01 -5.000000e+00 -2.000000e+01
      vertex   1.411751e+01 1.127875e+01 -2.000000e+01
      vertex   1.391369e+01 1.104011e+01 -2.000000e+01
    endloop
  endfacet
  facet normal 0.000000e+00 0.000000e+00 1.000000e+00
    outer loop
      vertex   2.000000e+01 -5.000000e+00 -2.000000e+01
      vertex   1.391369e+01 1.104011e+01 -2.000000e+01
      vertex   1.367505e+01 1.083628e+01 -2.000000e+01
    endloop
  endfacet
  facet normal 0.000000e+00 0.000000e+00 1.000000e+00
    outer loop
      vertex   1.311751e+01 1.055221e+01 -2.000000e+01
      vertex   1.281235e+01 1.047894e+01 -2.000000e+01
      vertex   5.000000e+00 -5.500000e+01 -2.000000e+01
    endloop
  endfacet
  facet normal 0.000000e+00 0.000000e+00 1.000000e+00
    outer loop
      vertex   5.000000e+00 -5.500000e+01 -2.000000e+01
      vertex   1.281235e+01 1.047894e+01 -2.000000e+01
      vertex   1.249948e+01 1.045432e+01 -2.000000e+01
    endloop
  endfacet
  facet normal 0.000000e+00 0.000000e+00 1.000000e+00
    outer loop
      vertex   5.000000e+00 -5.500000e+01 -2.000000e+01
      vertex   1.249948e+01 1.045432e+01 -2.000000e+01
      vertex   1.218661e+01 1.047894e+01 -2.000000e+01
    endloop
  endfacet
  facet normal 0.000000e+00 0.000000e+00 1.000000e+00
    outer loop
      vertex   1.218661e+01 1.047894e+01 -2.000000e+01
      vertex   1.188144e+01 1.055221e+01 -2.000000e+01
      vertex   5.000000e+00 -5.500000e+01 -2.000000e+01
    endloop
  endfacet
  facet normal 0.000000e+00 0.000000e+00 1.000000e+00
    outer loop
      vertex   5.000000e+00 -5.500000e+01 -2.000000e+01
      vertex   1.188144e+01 1.055221e+01 -2.000000e+01
      vertex   1.159150e+01 1.067231e+01 -2.000000e+01
    endloop
  endfacet
  facet normal 0.000000e+00 0.000000e+00 1.000000e+00
    outer loop
      vertex   5.000000e+00 -5.500000e+01 -2.000000e+01
      vertex   1.159150e+01 1.067231e+01 -2.000000e+01
      vertex   1.132391e+01 1.083628e+01 -2.000000e+01
    endloop
  endfacet
  facet normal 0.000000e+00 0.000000e+00 1.000000e+00
    outer loop
      vertex   1.132391e+01 1.083628e+01 -2.000000e+01
      vertex   1.108526e+01 1.104011e+01 -2.000000e+01
      vertex   5.000000e+00 -5.500000e+01 -2.000000e+01
    endloop
  endfacet
  facet normal 0.000000e+00 0.000000e+00 1.000000e+00
    outer loop
      vertex   5.000000e+00 -5.500000e+01 -2.000000e+01
      vertex   1.108526e+01 1.104011e+01 -2.000000e+01
      vertex   1.088144e+01 1.127875e+01 -2.000000e+01
    endloop
  endfacet
  facet normal 0.000000e+00 0.000000e+00 1.000000e+00
    outer loop
      vertex   5.000000e+00 -5.500000e+01 -2.000000e+01
      vertex   1.088144e+01 1.127875e+01 -2.000000e+01
      vertex   1.071747e+01 1.154634e+01 -2.000000e+01
    endloop
  endfacet
  facet normal 0.000000e+00 0.000000e+00 1.000000e+00
    outer loop
      vertex   1.071747e+01 1.154634e+01 -2.000000e+01
      vertex   1.059737e+01 1.183628e+01 -2.000000e+01
      vertex   5.000000e+00 -5.500000e+01 -2.000000e+01
    endloop
  endfacet
  facet normal 0.000000e+00 0.000000e+00 1.000000e+00
    outer loop
      vertex   5.000000e+00 -5.500000e+01 -2.000000e+01
      vertex   1.059737e+01 1.183628e+01 -2.000000e+01
      vertex   1.052410e+01 1.214145e+01 -2.000000e+01
    endloop
  endfacet
  facet normal 0.000000e+00 0.000000e+00 1.000000e+00
    outer loop
      vertex   5.000000e+00 -5.500000e+01 -2.000000e+01
      vertex   1.052410e+01 1.214145e+01 -2.000000e+01
      vertex   1.049948e+01 1.245432e+01 -2.000000e+01
    endloop
  endfacet
  facet normal 0.000000e+00 0.000000e+00 1.000000e+00
    outer loop
      vertex   1.049948e+01 2.745432e+01 -2.000000e+01
      vertex   1.050052e+01 2.745432e+01 -2.000000e+01
      vertex   1.051861e+01 2.777220e+01 -2.000000e+01
    endloop
  endfacet
  facet normal -1.000000e+00 -2.368476e-16 -0.000000e+00
    outer loop
      vertex   1.449948e+01 1.245432e+01 -2.000000e+01
      vertex   1.449948e+01 2.745432e+01 -2.000000e+01
      vertex   1.449948e+01 1.245432e+01 -2.500000e+01
    endloop
  endfacet
  facet normal -1.000000e+00 -2.368476e-16 0.000000e+00
    outer loop
      vertex   1.449948e+01 1.245432e+01 -2.500000e+01
      vertex   1.449948e+01 2.745432e+01 -2.000000e+01
      vertex   1.449948e+01 2.745432e+01 -2.500000e+01
    endloop
  endfacet
  facet normal 9.969173e-01 7.845910e-02 -0.000000e+00
    outer loop
      vertex   1.049948e+01 1.245432e+01 -2.500000e+01
      vertex   1.049948e+01 1.245432e+01 -2.000000e+01
      vertex   1.052410e+01 1.214145e+01 -2.500000e+01
    endloop
  endfacet
  facet normal 9.969173e-01 7.845910e-02 -0.000000e+00
    outer loop
      vertex   1.052410e+01 1.214145e+01 -2.500000e+01
      vertex   1.049948e+01 1.245432e+01 -2.000000e+01
      vertex   1.052410e+01 1.214145e+01 -2.000000e+01
    endloop
  endfacet
  facet normal 9.723699e-01 2.334454e-01 -0.000000e+00
    outer loop
      vertex   1.052410e+01 1.214145e+01 -2.500000e+01
      vertex   1.052410e+01 1.214145e+01 -2.000000e+01
      vertex   1.059737e+01 1.183628e+01 -2.000000e+01
    endloop
  endfacet
  facet normal 9.723699e-01 2.334454e-01 0.000000e+00
    outer loop
      vertex   1.052410e+01 1.214145e+01 -2.500000e+01
      vertex   1.059737e+01 1.183628e+01 -2.000000e+01
      vertex   1.059737e+01 1.183628e+01 -2.500000e+01
    endloop
  endfacet
  facet normal 9.238795e-01 3.826834e-01 -0.000000e+00
    outer loop
      vertex   1.059737e+01 1.183628e+01 -2.500000e+01
      vertex   1.059737e+01 1.183628e+01 -2.000000e+01
      vertex   1.071747e+01 1.154634e+01 -2.000000e+01
    endloop
  endfacet
  facet normal 9.238795e-01 3.826834e-01 0.000000e+00
    outer loop
      vertex   1.059737e+01 1.183628e+01 -2.500000e+01
      vertex   1.071747e+01 1.154634e+01 -2.000000e+01
      vertex   1.071747e+01 1.154634e+01 -2.500000e+01
    endloop
  endfacet
  facet normal 8.526402e-01 5.224986e-01 -0.000000e+00
    outer loop
      vertex   1.071747e+01 1.154634e+01 -2.500000e+01
      vertex   1.071747e+01 1.154634e+01 -2.000000e+01
      vertex   1.088144e+01 1.127875e+01 -2.000000e+01
    endloop
  endfacet
  facet normal 8.526402e-01 5.224986e-01 0.000000e+00
    outer loop
      vertex   1.071747e+01 1.154634e+01 -2.500000e+01
      vertex   1.088144e+01 1.127875e+01 -2.000000e+01
      vertex   1.088144e+01 1.127875e+01 -2.500000e+01
    endloop
  endfacet
  facet normal 7.604060e-01 6.494480e-01 -0.000000e+00
    outer loop
      vertex   1.088144e+01 1.127875e+01 -2.500000e+01
      vertex   1.088144e+01 1.127875e+01 -2.000000e+01
      vertex   1.108526e+01 1.104011e+01 -2.000000e+01
    endloop
  endfacet
  facet normal 7.604060e-01 6.494480e-01 0.000000e+00
    outer loop
      vertex   1.088144e+01 1.127875e+01 -2.500000e+01
      vertex   1.108526e+01 1.104011e+01 -2.000000e+01
      vertex   1.108526e+01 1.104011e+01 -2.500000e+01
    endloop
  endfacet
  facet normal 6.494480e-01 7.604060e-01 -0.000000e+00
    outer loop
      vertex   1.108526e+01 1.104011e+01 -2.500000e+01
      vertex   1.108526e+01 1.104011e+01 -2.000000e+01
      vertex   1.132391e+01 1.083628e+01 -2.000000e+01
    endloop
  endfacet
  facet normal 6.494480e-01 7.604060e-01 0.000000e+00
    outer loop
      vertex   1.108526e+01 1.104011e+01 -2.500000e+01
      vertex   1.132391e+01 1.083628e+01 -2.000000e+01
      vertex   1.132391e+01 1.083628e+01 -2.500000e+01
    endloop
  endfacet
  facet normal 5.224986e-01 8.526402e-01 -0.000000e+00
    outer loop
      vertex   1.132391e+01 1.083628e+01 -2.500000e+01
      vertex   1.132391e+01 1.083628e+01 -2.000000e+01
      vertex   1.159150e+01 1.067231e+01 -2.000000e+01
    endloop
  endfacet
  facet normal 5.224986e-01 8.526402e-01 0.000000e+00
    outer loop
      vertex   1.132391e+01 1.083628e+01 -2.500000e+01
      vertex   1.159150e+01 1.067231e+01 -2.000000e+01
      vertex   1.159150e+01 1.067231e+01 -2.500000e+01
    endloop
  endfacet
  facet normal 3.826834e-01 9.238795e-01 -0.000000e+00
    outer loop
      vertex   1.159150e+01 1.067231e+01 -2.500000e+01
      vertex   1.159150e+01 1.067231e+01 -2.000000e+01
      vertex   1.188144e+01 1.055221e+01 -2.000000e+01
    endloop
  endfacet
  facet normal 3.826834e-01 9.238795e-01 0.000000e+00
    outer loop
      vertex   1.159150e+01 1.067231e+01 -2.500000e+01
      vertex   1.188144e+01 1.055221e+01 -2.000000e+01
      vertex   1.188144e+01 1.055221e+01 -2.500000e+01
    endloop
  endfacet
  facet normal 2.334454e-01 9.723699e-01 -0.000000e+00
    outer loop
      vertex   1.188144e+01 1.055221e+01 -2.500000e+01
      vertex   1.188144e+01 1.055221e+01 -2.000000e+01
      vertex   1.218661e+01 1.047894e+01 -2.000000e+01
    endloop
  endfacet
  facet normal 2.334454e-01 9.723699e-01 0.000000e+00
    outer loop
      vertex   1.188144e+01 1.055221e+01 -2.500000e+01
      vertex   1.218661e+01 1.047894e+01 -2.000000e+01
      vertex   1.218661e+01 1.047894e+01 -2.500000e+01
    endloop
  endfacet
  facet normal 7.845910e-02 9.969173e-01 -0.000000e+00
    outer loop
      vertex   1.218661e+01 1.047894e+01 -2.500000e+01
      vertex   1.218661e+01 1.047894e+01 -2.000000e+01
      vertex   1.249948e+01 1.045432e+01 -2.000000e+01
    endloop
  endfacet
  facet normal 7.845910e-02 9.969173e-01 0.000000e+00
    outer loop
      vertex   1.218661e+01 1.047894e+01 -2.500000e+01
      vertex   1.249948e+01 1.045432e+01 -2.000000e+01
      vertex   1.249948e+01 1.045432e+01 -2.500000e+01
    endloop
  endfacet
  facet normal -7.845910e-02 9.969173e-01 0.000000e+00
    outer loop
      vertex   1.249948e+01 1.045432e+01 -2.500000e+01
      vertex   1.249948e+01 1.045432e+01 -2.000000e+01
      vertex   1.281235e+01 1.047894e+01 -2.000000e+01
    endloop
  endfacet
  facet normal -7.845910e-02 9.969173e-01 0.000000e+00
    outer loop
      vertex   1.249948e+01 1.045432e+01 -2.500000e+01
      vertex   1.281235e+01 1.047894e+01 -2.000000e+01
      vertex   1.281235e+01 1.047894e+01 -2.500000e+01
    endloop
  endfacet
  facet normal -2.334454e-01 9.723699e-01 0.000000e+00
    outer loop
      vertex   1.281235e+01 1.047894e+01 -2.500000e+01
      vertex   1.281235e+01 1.047894e+01 -2.000000e+01
      vertex   1.311751e+01 1.055221e+01 -2.000000e+01
    endloop
  endfacet
  facet normal -2.334454e-01 9.723699e-01 0.000000e+00
    outer loop
      vertex   1.281235e+01 1.047894e+01 -2.500000e+01
      vertex   1.311751e+01 1.055221e+01 -2.000000e+01
      vertex   1.311751e+01 1.055221e+01 -2.500000e+01
    endloop
  endfacet
  facet normal -3.826834e-01 9.238795e-01 0.000000e+00
    outer loop
      vertex   1.311751e+01 1.055221e+01 -2.500000e+01
      vertex   1.311751e+01 1.055221e+01 -2.000000e+01
      vertex   1.340746e+01 1.067231e+01 -2.000000e+01
    endloop
  endfacet
  facet normal -3.826834e-01 9.238795e-01 0.000000e+00
    outer loop
      vertex   1.311751e+01 1.055221e+01 -2.500000e+01
      vertex   1.340746e+01 1.067231e+01 -2.000000e+01
      vertex   1.340746e+01 1.067231e+01 -2.500000e+01
    endloop
  endfacet
  facet normal -5.224986e-01 8.526402e-01 0.000000e+00
    outer loop
      vertex   1.340746e+01 1.067231e+01 -2.500000e+01
      vertex   1.340746e+01 1.067231e+01 -2.000000e+01
      vertex   1.367505e+01 1.083628e+01 -2.000000e+01
    endloop
  endfacet
  facet normal -5.224986e-01 8.526402e-01 0.000000e+00
    outer loop
      vertex   1.340746e+01 1.067231e+01 -2.500000e+01
      vertex   1.367505e+01 1.083628e+01 -2.000000e+01
      vertex   1.367505e+01 1.083628e+01 -2.500000e+01
    endloop
  endfacet
  facet normal -6.494480e-01 7.604060e-01 0.000000e+00
    outer loop
      vertex   1.367505e+01 1.083628e+01 -2.500000e+01
      vertex   1.367505e+01 1.083628e+01 -2.000000e+01
      vertex   1.391369e+01 1.104011e+01 -2.000000e+01
    endloop
  endfacet
  facet normal -6.494480e-01 7.604060e-01 0.000000e+00
    outer loop
      vertex   1.367505e+01 1.083628e+01 -2.500000e+01
      vertex   1.391369e+01 1.104011e+01 -2.000000e+01
      vertex   1.391369e+01 1.104011e+01 -2.500000e+01
    endloop
  endfacet
  facet normal -7.604060e-01 6.494480e-01 0.000000e+00
    outer loop
      vertex   1.391369e+01 1.104011e+01 -2.500000e+01
      vertex   1.391369e+01 1.104011e+01 -2.000000e+01
      vertex   1.411751e+01 1.127875e+01 -2.000000e+01
    endloop
  endfacet
  facet normal -7.604060e-01 6.494480e-01 0.000000e+00
    outer loop
      vertex   1.391369e+01 1.104011e+01 -2.500000e+01
      vertex   1.411751e+01 1.127875e+01 -2.000000e+01
      vertex   1.411751e+01 1.127875e+01 -2.500000e+01
    endloop
  endfacet
  facet normal -8.526402e-01 5.224986e-01 0.000000e+00
    outer loop
      vertex   1.411751e+01 1.127875e+01 -2.500000e+01
      vertex   1.411751e+01 1.127875e+01 -2.000000e+01
      vertex   1.428149e+01 1.154634e+01 -2.000000e+01
    endloop
  endfacet
  facet normal -8.526402e-01 5.224986e-01 0.000000e+00
    outer loop
      vertex   1.411751e+01 1.127875e+01 -2.500000e+01
      vertex   1.428149e+01 1.154634e+01 -2.000000e+01
      vertex   1.428149e+01 1.154634e+01 -2.500000e+01
    endloop
  endfacet
  facet normal -9.238795e-01 3.826834e-01 0.000000e+00
    outer loop
      vertex   1.428149e+01 1.154634e+01 -2.500000e+01
      vertex   1.428149e+01 1.154634e+01 -2.000000e+01
      vertex   1.440159e+01 1.183628e+01 -2.000000e+01
    endloop
  endfacet
  facet normal -9.238795e-01 3.826834e-01 0.000000e+00
    outer loop
      vertex   1.428149e+01 1.154634e+01 -2.500000e+01
      vertex   1.440159e+01 1.183628e+01 -2.000000e+01
      vertex   1.440159e+01 1.183628e+01 -2.500000e+01
    endloop
  endfacet
  facet normal -9.723699e-01 2.334454e-01 0.000000e+00
    outer loop
      vertex   1.440159e+01 1.183628e+01 -2.500000e+01
      vertex   1.440159e+01 1.183628e+01 -2.000000e+01
      vertex   1.447486e+01 1.214145e+01 -2.000000e+01
    endloop
  endfacet
  facet normal -9.723699e-01 2.334454e-01 0.000000e+00
    outer loop
      vertex   1.440159e+01 1.183628e+01 -2.500000e+01
      vertex   1.447486e+01 1.214145e+01 -2.000000e+01
      vertex   1.447486e+01 1.214145e+01 -2.500000e+01
    endloop
  endfacet
  facet normal -9.969173e-01 7.845910e-02 0.000000e+00
    outer loop
      vertex   1.447486e+01 1.214145e+01 -2.500000e+01
      vertex   1.447486e+01 1.214145e+01 -2.000000e+01
      vertex   1.449948e+01 1.245432e+01 -2.500000e+01
    endloop
  endfacet
  facet normal -9.969173e-01 7.845910e-02 0.000000e+00
    outer loop
      vertex   1.449948e+01 1.245432e+01 -2.500000e+01
      vertex   1.447486e+01 1.214145e+01 -2.000000e+01
      vertex   1.449948e+01 1.245432e+01 -2.000000e+01
    endloop
  endfacet
  facet normal 1.000000e+00 -1.184238e-16 0.000000e+00
    outer loop
      vertex   1.049948e+01 2.745432e+01 -2.000000e+01
      vertex   1.049948e+01 1.245432e+01 -2.000000e+01
      vertex   1.049948e+01 2.745432e+01 -2.500000e+01
    endloop
  endfacet
  facet normal 1.000000e+00 -1.184238e-16 0.000000e+00
    outer loop
      vertex   1.049948e+01 2.745432e+01 -2.500000e+01
      vertex   1.049948e+01 1.245432e+01 -2.000000e+01
      vertex   1.049948e+01 1.245432e+01 -2.500000e+01
    endloop
  endfacet
  facet normal -0.000000e+00 -1.000000e+00 -0.000000e+00
    outer loop
      vertex   1.050052e+01 2.745432e+01 -2.000000e+01
      vertex   1.049948e+01 2.745432e+01 -2.000000e+01
      vertex   1.050052e+01 2.745432e+01 -2.500000e+01
    endloop
  endfacet
  facet normal 0.000000e+00 -1.000000e+00 0.000000e+00
    outer loop
      vertex   1.050052e+01 2.745432e+01 -2.500000e+01
      vertex   1.049948e+01 2.745432e+01 -2.000000e+01
      vertex   1.049948e+01 2.745432e+01 -2.500000e+01
    endloop
  endfacet
  facet normal -9.983851e-01 -5.680848e-02 0.000000e+00
    outer loop
      vertex   1.449948e+01 2.745432e+01 -2.500000e+01
      vertex   1.449948e+01 2.745432e+01 -2.000000e+01
      vertex   1.448139e+01 2.777220e+01 -2.500000e+01
    endloop
  endfacet
  facet normal -9.983851e-01 -5.680848e-02 4.036485e-17
    outer loop
      vertex   1.448139e+01 2.777220e+01 -2.500000e+01
      vertex   1.449948e+01 2.745432e+01 -2.000000e+01
      vertex   1.448139e+01 2.777220e+01 -2.000000e+01
    endloop
  endfacet
  facet normal -9.767190e-01 -2.145226e-01 1.524275e-16
    outer loop
      vertex   1.448139e+01 2.777220e+01 -2.500000e+01
      vertex   1.448139e+01 2.777220e+01 -2.000000e+01
      vertex   1.441309e+01 2.808317e+01 -2.500000e+01
    endloop
  endfacet
  facet normal -9.767190e-01 -2.145226e-01 -1.524275e-16
    outer loop
      vertex   1.441309e+01 2.808317e+01 -2.500000e+01
      vertex   1.448139e+01 2.777220e+01 -2.000000e+01
      vertex   1.441309e+01 2.808317e+01 -2.000000e+01
    endloop
  endfacet
  facet normal -9.302998e-01 -3.668000e-01 -2.606271e-16
    outer loop
      vertex   1.441309e+01 2.808317e+01 -2.500000e+01
      vertex   1.441309e+01 2.808317e+01 -2.000000e+01
      vertex   1.429630e+01 2.837937e+01 -2.500000e+01
    endloop
  endfacet
  facet normal -9.302998e-01 -3.668000e-01 -3.305089e-16
    outer loop
      vertex   1.429630e+01 2.837937e+01 -2.500000e+01
      vertex   1.441309e+01 2.808317e+01 -2.000000e+01
      vertex   1.429630e+01 2.837937e+01 -2.000000e+01
    endloop
  endfacet
  facet normal -8.603039e-01 -5.097815e-01 -3.056413e-16
    outer loop
      vertex   1.429630e+01 2.837937e+01 -2.500000e+01
      vertex   1.429630e+01 2.837937e+01 -2.000000e+01
      vertex   1.413399e+01 2.865329e+01 -2.500000e+01
    endloop
  endfacet
  facet normal -8.603039e-01 -5.097815e-01 0.000000e+00
    outer loop
      vertex   1.413399e+01 2.865329e+01 -2.500000e+01
      vertex   1.429630e+01 2.837937e+01 -2.000000e+01
      vertex   1.413399e+01 2.865329e+01 -2.000000e+01
    endloop
  endfacet
  facet normal -7.685051e-01 -6.398436e-01 0.000000e+00
    outer loop
      vertex   1.413399e+01 2.865329e+01 -2.500000e+01
      vertex   1.413399e+01 2.865329e+01 -2.000000e+01
      vertex   1.393027e+01 2.889797e+01 -2.500000e+01
    endloop
  endfacet
  facet normal -7.685051e-01 -6.398436e-01 0.000000e+00
    outer loop
      vertex   1.393027e+01 2.889797e+01 -2.500000e+01
      vertex   1.413399e+01 2.865329e+01 -2.000000e+01
      vertex   1.393027e+01 2.889797e+01 -2.000000e+01
    endloop
  endfacet
  facet normal -6.572300e-01 -7.536900e-01 0.000000e+00
    outer loop
      vertex   1.393027e+01 2.889797e+01 -2.500000e+01
      vertex   1.393027e+01 2.889797e+01 -2.000000e+01
      vertex   1.369031e+01 2.910723e+01 -2.500000e+01
    endloop
  endfacet
  facet normal -6.572300e-01 -7.536900e-01 0.000000e+00
    outer loop
      vertex   1.369031e+01 2.910723e+01 -2.500000e+01
      vertex   1.393027e+01 2.889797e+01 -2.000000e+01
      vertex   1.369031e+01 2.910723e+01 -2.000000e+01
    endloop
  endfacet
  facet normal -5.292987e-01 -8.484356e-01 0.000000e+00
    outer loop
      vertex   1.369031e+01 2.910723e+01 -2.500000e+01
      vertex   1.369031e+01 2.910723e+01 -2.000000e+01
      vertex   1.342017e+01 2.927575e+01 -2.500000e+01
    endloop
  endfacet
  facet normal -5.292987e-01 -8.484356e-01 1.880447e-16
    outer loop
      vertex   1.342017e+01 2.927575e+01 -2.500000e+01
      vertex   1.369031e+01 2.910723e+01 -2.000000e+01
      vertex   1.342017e+01 2.927575e+01 -2.000000e+01
    endloop
  endfacet
  facet normal -3.879532e-01 -9.216791e-01 1.378287e-16
    outer loop
      vertex   1.342017e+01 2.927575e+01 -2.500000e+01
      vertex   1.342017e+01 2.927575e+01 -2.000000e+01
      vertex   1.312672e+01 2.939927e+01 -2.500000e+01
    endloop
  endfacet
  facet normal -3.879532e-01 -9.216791e-01 -1.378287e-16
    outer loop
      vertex   1.312672e+01 2.939927e+01 -2.500000e+01
      vertex   1.342017e+01 2.927575e+01 -2.000000e+01
      vertex   1.312672e+01 2.939927e+01 -2.000000e+01
    endloop
  endfacet
  facet normal -2.367757e-01 -9.715643e-01 -8.411964e-17
    outer loop
      vertex   1.312672e+01 2.939927e+01 -2.500000e+01
      vertex   1.312672e+01 2.939927e+01 -2.000000e+01
      vertex   1.281738e+01 2.947466e+01 -2.500000e+01
    endloop
  endfacet
  facet normal -2.367757e-01 -9.715643e-01 0.000000e+00
    outer loop
      vertex   1.281738e+01 2.947466e+01 -2.500000e+01
      vertex   1.312672e+01 2.939927e+01 -2.000000e+01
      vertex   1.281738e+01 2.947466e+01 -2.000000e+01
    endloop
  endfacet
  facet normal -7.959767e-02 -9.968271e-01 0.000000e+00
    outer loop
      vertex   1.281738e+01 2.947466e+01 -2.500000e+01
      vertex   1.281738e+01 2.947466e+01 -2.000000e+01
      vertex   1.250000e+01 2.950000e+01 -2.500000e+01
    endloop
  endfacet
  facet normal -7.959767e-02 -9.968271e-01 0.000000e+00
    outer loop
      vertex   1.250000e+01 2.950000e+01 -2.500000e+01
      vertex   1.281738e+01 2.947466e+01 -2.000000e+01
      vertex   1.250000e+01 2.950000e+01 -2.000000e+01
    endloop
  endfacet
  facet normal 7.959767e-02 -9.968271e-01 0.000000e+00
    outer loop
      vertex   1.250000e+01 2.950000e+01 -2.500000e+01
      vertex   1.250000e+01 2.950000e+01 -2.000000e+01
      vertex   1.218262e+01 2.947466e+01 -2.500000e+01
    endloop
  endfacet
  facet normal 7.959767e-02 -9.968271e-01 2.827877e-17
    outer loop
      vertex   1.218262e+01 2.947466e+01 -2.500000e+01
      vertex   1.250000e+01 2.950000e+01 -2.000000e+01
      vertex   1.218262e+01 2.947466e+01 -2.000000e+01
    endloop
  endfacet
  facet normal 2.367757e-01 -9.715643e-01 8.411964e-17
    outer loop
      vertex   1.218262e+01 2.947466e+01 -2.500000e+01
      vertex   1.218262e+01 2.947466e+01 -2.000000e+01
      vertex   1.187328e+01 2.939927e+01 -2.500000e+01
    endloop
  endfacet
  facet normal 2.367757e-01 -9.715643e-01 0.000000e+00
    outer loop
      vertex   1.187328e+01 2.939927e+01 -2.500000e+01
      vertex   1.218262e+01 2.947466e+01 -2.000000e+01
      vertex   1.187328e+01 2.939927e+01 -2.000000e+01
    endloop
  endfacet
  facet normal 3.879532e-01 -9.216791e-01 0.000000e+00
    outer loop
      vertex   1.187328e+01 2.939927e+01 -2.500000e+01
      vertex   1.187328e+01 2.939927e+01 -2.000000e+01
      vertex   1.157983e+01 2.927575e+01 -2.500000e+01
    endloop
  endfacet
  facet normal 3.879532e-01 -9.216791e-01 0.000000e+00
    outer loop
      vertex   1.157983e+01 2.927575e+01 -2.500000e+01
      vertex   1.187328e+01 2.939927e+01 -2.000000e+01
      vertex   1.157983e+01 2.927575e+01 -2.000000e+01
    endloop
  endfacet
  facet normal 5.292987e-01 -8.484356e-01 0.000000e+00
    outer loop
      vertex   1.157983e+01 2.927575e+01 -2.500000e+01
      vertex   1.157983e+01 2.927575e+01 -2.000000e+01
      vertex   1.130969e+01 2.910723e+01 -2.500000e+01
    endloop
  endfacet
  facet normal 5.292987e-01 -8.484356e-01 0.000000e+00
    outer loop
      vertex   1.130969e+01 2.910723e+01 -2.500000e+01
      vertex   1.157983e+01 2.927575e+01 -2.000000e+01
      vertex   1.130969e+01 2.910723e+01 -2.000000e+01
    endloop
  endfacet
  facet normal 6.572300e-01 -7.536900e-01 0.000000e+00
    outer loop
      vertex   1.130969e+01 2.910723e+01 -2.500000e+01
      vertex   1.130969e+01 2.910723e+01 -2.000000e+01
      vertex   1.106973e+01 2.889797e+01 -2.500000e+01
    endloop
  endfacet
  facet normal 6.572300e-01 -7.536900e-01 -2.334950e-16
    outer loop
      vertex   1.106973e+01 2.889797e+01 -2.500000e+01
      vertex   1.130969e+01 2.910723e+01 -2.000000e+01
      vertex   1.106973e+01 2.889797e+01 -2.000000e+01
    endloop
  endfacet
  facet normal 7.685051e-01 -6.398436e-01 -2.730279e-16
    outer loop
      vertex   1.106973e+01 2.889797e+01 -2.500000e+01
      vertex   1.106973e+01 2.889797e+01 -2.000000e+01
      vertex   1.086601e+01 2.865329e+01 -2.500000e+01
    endloop
  endfacet
  facet normal 7.685051e-01 -6.398436e-01 0.000000e+00
    outer loop
      vertex   1.086601e+01 2.865329e+01 -2.500000e+01
      vertex   1.106973e+01 2.889797e+01 -2.000000e+01
      vertex   1.086601e+01 2.865329e+01 -2.000000e+01
    endloop
  endfacet
  facet normal 8.603039e-01 -5.097815e-01 0.000000e+00
    outer loop
      vertex   1.086601e+01 2.865329e+01 -2.500000e+01
      vertex   1.086601e+01 2.865329e+01 -2.000000e+01
      vertex   1.070370e+01 2.837937e+01 -2.500000e+01
    endloop
  endfacet
  facet normal 8.603039e-01 -5.097815e-01 3.056413e-16
    outer loop
      vertex   1.070370e+01 2.837937e+01 -2.500000e+01
      vertex   1.086601e+01 2.865329e+01 -2.000000e+01
      vertex   1.070370e+01 2.837937e+01 -2.000000e+01
    endloop
  endfacet
  facet normal 9.302998e-01 -3.668000e-01 3.305089e-16
    outer loop
      vertex   1.070370e+01 2.837937e+01 -2.500000e+01
      vertex   1.070370e+01 2.837937e+01 -2.000000e+01
      vertex   1.058691e+01 2.808317e+01 -2.500000e+01
    endloop
  endfacet
  facet normal 9.302998e-01 -3.668000e-01 -6.610178e-16
    outer loop
      vertex   1.058691e+01 2.808317e+01 -2.500000e+01
      vertex   1.070370e+01 2.837937e+01 -2.000000e+01
      vertex   1.058691e+01 2.808317e+01 -2.000000e+01
    endloop
  endfacet
  facet normal 9.767190e-01 -2.145226e-01 -6.940006e-16
    outer loop
      vertex   1.058691e+01 2.808317e+01 -2.500000e+01
      vertex   1.058691e+01 2.808317e+01 -2.000000e+01
      vertex   1.051861e+01 2.777220e+01 -2.500000e+01
    endloop
  endfacet
  facet normal 9.767190e-01 -2.145226e-01 1.524275e-16
    outer loop
      vertex   1.051861e+01 2.777220e+01 -2.500000e+01
      vertex   1.058691e+01 2.808317e+01 -2.000000e+01
      vertex   1.051861e+01 2.777220e+01 -2.000000e+01
    endloop
  endfacet
  facet normal 9.983851e-01 -5.680848e-02 4.036485e-17
    outer loop
      vertex   1.051861e+01 2.777220e+01 -2.500000e+01
      vertex   1.051861e+01 2.777220e+01 -2.000000e+01
      vertex   1.050052e+01 2.745432e+01 -2.500000e+01
    endloop
  endfacet
  facet normal 9.983851e-01 -5.680848e-02 0.000000e+00
    outer loop
      vertex   1.050052e+01 2.745432e+01 -2.500000e+01
      vertex   1.051861e+01 2.777220e+01 -2.000000e+01
      vertex   1.050052e+01 2.745432e+01 -2.000000e+01
    endloop
  endfacet
  facet normal -1.000000e+00 -1.182630e-16 -0.000000e+00
    outer loop
      vertex   1.449998e+01 3.498916e+01 -2.000000e+01
      vertex   1.449998e+01 5.000955e+01 -2.000000e+01
      vertex   1.449998e+01 3.498916e+01 -2.500000e+01
    endloop
  endfacet
  facet normal -1.000000e+00 -1.182630e-16 0.000000e+00
    outer loop
      vertex   1.449998e+01 3.498916e+01 -2.500000e+01
      vertex   1.449998e+01 5.000955e+01 -2.000000e+01
      vertex   1.449998e+01 5.000955e+01 -2.500000e+01
    endloop
  endfacet
  facet normal 9.969173e-01 7.845910e-02 -0.000000e+00
    outer loop
      vertex   1.049998e+01 3.498916e+01 -2.500000e+01
      vertex   1.049998e+01 3.498916e+01 -2.000000e+01
      vertex   1.052460e+01 3.467629e+01 -2.500000e+01
    endloop
  endfacet
  facet normal 9.969173e-01 7.845910e-02 -0.000000e+00
    outer loop
      vertex   1.052460e+01 3.467629e+01 -2.500000e+01
      vertex   1.049998e+01 3.498916e+01 -2.000000e+01
      vertex   1.052460e+01 3.467629e+01 -2.000000e+01
    endloop
  endfacet
  facet normal 9.723699e-01 2.334454e-01 -0.000000e+00
    outer loop
      vertex   1.052460e+01 3.467629e+01 -2.500000e+01
      vertex   1.052460e+01 3.467629e+01 -2.000000e+01
      vertex   1.059786e+01 3.437113e+01 -2.000000e+01
    endloop
  endfacet
  facet normal 9.723699e-01 2.334454e-01 0.000000e+00
    outer loop
      vertex   1.052460e+01 3.467629e+01 -2.500000e+01
      vertex   1.059786e+01 3.437113e+01 -2.000000e+01
      vertex   1.059786e+01 3.437113e+01 -2.500000e+01
    endloop
  endfacet
  facet normal 9.238795e-01 3.826834e-01 -0.000000e+00
    outer loop
      vertex   1.059786e+01 3.437113e+01 -2.500000e+01
      vertex   1.059786e+01 3.437113e+01 -2.000000e+01
      vertex   1.071796e+01 3.408118e+01 -2.000000e+01
    endloop
  endfacet
  facet normal 9.238795e-01 3.826834e-01 0.000000e+00
    outer loop
      vertex   1.059786e+01 3.437113e+01 -2.500000e+01
      vertex   1.071796e+01 3.408118e+01 -2.000000e+01
      vertex   1.071796e+01 3.408118e+01 -2.500000e+01
    endloop
  endfacet
  facet normal 8.526402e-01 5.224986e-01 -0.000000e+00
    outer loop
      vertex   1.071796e+01 3.408118e+01 -2.500000e+01
      vertex   1.071796e+01 3.408118e+01 -2.000000e+01
      vertex   1.088194e+01 3.381359e+01 -2.000000e+01
    endloop
  endfacet
  facet normal 8.526402e-01 5.224986e-01 0.000000e+00
    outer loop
      vertex   1.071796e+01 3.408118e+01 -2.500000e+01
      vertex   1.088194e+01 3.381359e+01 -2.000000e+01
      vertex   1.088194e+01 3.381359e+01 -2.500000e+01
    endloop
  endfacet
  facet normal 7.604060e-01 6.494480e-01 -0.000000e+00
    outer loop
      vertex   1.088194e+01 3.381359e+01 -2.500000e+01
      vertex   1.088194e+01 3.381359e+01 -2.000000e+01
      vertex   1.108576e+01 3.357495e+01 -2.000000e+01
    endloop
  endfacet
  facet normal 7.604060e-01 6.494480e-01 0.000000e+00
    outer loop
      vertex   1.088194e+01 3.381359e+01 -2.500000e+01
      vertex   1.108576e+01 3.357495e+01 -2.000000e+01
      vertex   1.108576e+01 3.357495e+01 -2.500000e+01
    endloop
  endfacet
  facet normal 6.494480e-01 7.604060e-01 -0.000000e+00
    outer loop
      vertex   1.108576e+01 3.357495e+01 -2.500000e+01
      vertex   1.108576e+01 3.357495e+01 -2.000000e+01
      vertex   1.132441e+01 3.337113e+01 -2.000000e+01
    endloop
  endfacet
  facet normal 6.494480e-01 7.604060e-01 0.000000e+00
    outer loop
      vertex   1.108576e+01 3.357495e+01 -2.500000e+01
      vertex   1.132441e+01 3.337113e+01 -2.000000e+01
      vertex   1.132441e+01 3.337113e+01 -2.500000e+01
    endloop
  endfacet
  facet normal 5.224986e-01 8.526402e-01 -0.000000e+00
    outer loop
      vertex   1.132441e+01 3.337113e+01 -2.500000e+01
      vertex   1.132441e+01 3.337113e+01 -2.000000e+01
      vertex   1.159200e+01 3.320715e+01 -2.000000e+01
    endloop
  endfacet
  facet normal 5.224986e-01 8.526402e-01 0.000000e+00
    outer loop
      vertex   1.132441e+01 3.337113e+01 -2.500000e+01
      vertex   1.159200e+01 3.320715e+01 -2.000000e+01
      vertex   1.159200e+01 3.320715e+01 -2.500000e+01
    endloop
  endfacet
  facet normal 3.826834e-01 9.238795e-01 -0.000000e+00
    outer loop
      vertex   1.159200e+01 3.320715e+01 -2.500000e+01
      vertex   1.159200e+01 3.320715e+01 -2.000000e+01
      vertex   1.188194e+01 3.308705e+01 -2.000000e+01
    endloop
  endfacet
  facet normal 3.826834e-01 9.238795e-01 0.000000e+00
    outer loop
      vertex   1.159200e+01 3.320715e+01 -2.500000e+01
      vertex   1.188194e+01 3.308705e+01 -2.000000e+01
      vertex   1.188194e+01 3.308705e+01 -2.500000e+01
    endloop
  endfacet
  facet normal 2.334454e-01 9.723699e-01 -0.000000e+00
    outer loop
      vertex   1.188194e+01 3.308705e+01 -2.500000e+01
      vertex   1.188194e+01 3.308705e+01 -2.000000e+01
      vertex   1.218711e+01 3.301378e+01 -2.000000e+01
    endloop
  endfacet
  facet normal 2.334454e-01 9.723699e-01 0.000000e+00
    outer loop
      vertex   1.188194e+01 3.308705e+01 -2.500000e+01
      vertex   1.218711e+01 3.301378e+01 -2.000000e+01
      vertex   1.218711e+01 3.301378e+01 -2.500000e+01
    endloop
  endfacet
  facet normal 7.845910e-02 9.969173e-01 -0.000000e+00
    outer loop
      vertex   1.218711e+01 3.301378e+01 -2.500000e+01
      vertex   1.218711e+01 3.301378e+01 -2.000000e+01
      vertex   1.249998e+01 3.298916e+01 -2.000000e+01
    endloop
  endfacet
  facet normal 7.845910e-02 9.969173e-01 0.000000e+00
    outer loop
      vertex   1.218711e+01 3.301378e+01 -2.500000e+01
      vertex   1.249998e+01 3.298916e+01 -2.000000e+01
      vertex   1.249998e+01 3.298916e+01 -2.500000e+01
    endloop
  endfacet
  facet normal -7.845910e-02 9.969173e-01 0.000000e+00
    outer loop
      vertex   1.249998e+01 3.298916e+01 -2.500000e+01
      vertex   1.249998e+01 3.298916e+01 -2.000000e+01
      vertex   1.281285e+01 3.301378e+01 -2.000000e+01
    endloop
  endfacet
  facet normal -7.845910e-02 9.969173e-01 0.000000e+00
    outer loop
      vertex   1.249998e+01 3.298916e+01 -2.500000e+01
      vertex   1.281285e+01 3.301378e+01 -2.000000e+01
      vertex   1.281285e+01 3.301378e+01 -2.500000e+01
    endloop
  endfacet
  facet normal -2.334454e-01 9.723699e-01 0.000000e+00
    outer loop
      vertex   1.281285e+01 3.301378e+01 -2.500000e+01
      vertex   1.281285e+01 3.301378e+01 -2.000000e+01
      vertex   1.311801e+01 3.308705e+01 -2.000000e+01
    endloop
  endfacet
  facet normal -2.334454e-01 9.723699e-01 0.000000e+00
    outer loop
      vertex   1.281285e+01 3.301378e+01 -2.500000e+01
      vertex   1.311801e+01 3.308705e+01 -2.000000e+01
      vertex   1.311801e+01 3.308705e+01 -2.500000e+01
    endloop
  endfacet
  facet normal -3.826834e-01 9.238795e-01 0.000000e+00
    outer loop
      vertex   1.311801e+01 3.308705e+01 -2.500000e+01
      vertex   1.311801e+01 3.308705e+01 -2.000000e+01
      vertex   1.340796e+01 3.320715e+01 -2.000000e+01
    endloop
  endfacet
  facet normal -3.826834e-01 9.238795e-01 0.000000e+00
    outer loop
      vertex   1.311801e+01 3.308705e+01 -2.500000e+01
      vertex   1.340796e+01 3.320715e+01 -2.000000e+01
      vertex   1.340796e+01 3.320715e+01 -2.500000e+01
    endloop
  endfacet
  facet normal -5.224986e-01 8.526402e-01 0.000000e+00
    outer loop
      vertex   1.340796e+01 3.320715e+01 -2.500000e+01
      vertex   1.340796e+01 3.320715e+01 -2.000000e+01
      vertex   1.367555e+01 3.337113e+01 -2.000000e+01
    endloop
  endfacet
  facet normal -5.224986e-01 8.526402e-01 0.000000e+00
    outer loop
      vertex   1.340796e+01 3.320715e+01 -2.500000e+01
      vertex   1.367555e+01 3.337113e+01 -2.000000e+01
      vertex   1.367555e+01 3.337113e+01 -2.500000e+01
    endloop
  endfacet
  facet normal -6.494480e-01 7.604060e-01 0.000000e+00
    outer loop
      vertex   1.367555e+01 3.337113e+01 -2.500000e+01
      vertex   1.367555e+01 3.337113e+01 -2.000000e+01
      vertex   1.391419e+01 3.357495e+01 -2.000000e+01
    endloop
  endfacet
  facet normal -6.494480e-01 7.604060e-01 0.000000e+00
    outer loop
      vertex   1.367555e+01 3.337113e+01 -2.500000e+01
      vertex   1.391419e+01 3.357495e+01 -2.000000e+01
      vertex   1.391419e+01 3.357495e+01 -2.500000e+01
    endloop
  endfacet
  facet normal -7.604060e-01 6.494480e-01 0.000000e+00
    outer loop
      vertex   1.391419e+01 3.357495e+01 -2.500000e+01
      vertex   1.391419e+01 3.357495e+01 -2.000000e+01
      vertex   1.411801e+01 3.381359e+01 -2.000000e+01
    endloop
  endfacet
  facet normal -7.604060e-01 6.494480e-01 0.000000e+00
    outer loop
      vertex   1.391419e+01 3.357495e+01 -2.500000e+01
      vertex   1.411801e+01 3.381359e+01 -2.000000e+01
      vertex   1.411801e+01 3.381359e+01 -2.500000e+01
    endloop
  endfacet
  facet normal -8.526402e-01 5.224986e-01 0.000000e+00
    outer loop
      vertex   1.411801e+01 3.381359e+01 -2.500000e+01
      vertex   1.411801e+01 3.381359e+01 -2.000000e+01
      vertex   1.428199e+01 3.408118e+01 -2.000000e+01
    endloop
  endfacet
  facet normal -8.526402e-01 5.224986e-01 0.000000e+00
    outer loop
      vertex   1.411801e+01 3.381359e+01 -2.500000e+01
      vertex   1.428199e+01 3.408118e+01 -2.000000e+01
      vertex   1.428199e+01 3.408118e+01 -2.500000e+01
    endloop
  endfacet
  facet normal -9.238795e-01 3.826834e-01 0.000000e+00
    outer loop
      vertex   1.428199e+01 3.408118e+01 -2.500000e+01
      vertex   1.428199e+01 3.408118e+01 -2.000000e+01
      vertex   1.440209e+01 3.437113e+01 -2.000000e+01
    endloop
  endfacet
  facet normal -9.238795e-01 3.826834e-01 0.000000e+00
    outer loop
      vertex   1.428199e+01 3.408118e+01 -2.500000e+01
      vertex   1.440209e+01 3.437113e+01 -2.000000e+01
      vertex   1.440209e+01 3.437113e+01 -2.500000e+01
    endloop
  endfacet
  facet normal -9.723699e-01 2.334454e-01 0.000000e+00
    outer loop
      vertex   1.440209e+01 3.437113e+01 -2.500000e+01
      vertex   1.440209e+01 3.437113e+01 -2.000000e+01
      vertex   1.447535e+01 3.467629e+01 -2.000000e+01
    endloop
  endfacet
  facet normal -9.723699e-01 2.334454e-01 0.000000e+00
    outer loop
      vertex   1.440209e+01 3.437113e+01 -2.500000e+01
      vertex   1.447535e+01 3.467629e+01 -2.000000e+01
      vertex   1.447535e+01 3.467629e+01 -2.500000e+01
    endloop
  endfacet
  facet normal -9.969173e-01 7.845910e-02 0.000000e+00
    outer loop
      vertex   1.447535e+01 3.467629e+01 -2.500000e+01
      vertex   1.447535e+01 3.467629e+01 -2.000000e+01
      vertex   1.449998e+01 3.498916e+01 -2.500000e+01
    endloop
  endfacet
  facet normal -9.969173e-01 7.845910e-02 0.000000e+00
    outer loop
      vertex   1.449998e+01 3.498916e+01 -2.500000e+01
      vertex   1.447535e+01 3.467629e+01 -2.000000e+01
      vertex   1.449998e+01 3.498916e+01 -2.000000e+01
    endloop
  endfacet
  facet normal 1.000000e+00 0.000000e+00 0.000000e+00
    outer loop
      vertex   1.049998e+01 5.000955e+01 -2.000000e+01
      vertex   1.049998e+01 3.498916e+01 -2.000000e+01
      vertex   1.049998e+01 5.000955e+01 -2.500000e+01
    endloop
  endfacet
  facet normal 1.000000e+00 0.000000e+00 0.000000e+00
    outer loop
      vertex   1.049998e+01 5.000955e+01 -2.500000e+01
      vertex   1.049998e+01 3.498916e+01 -2.000000e+01
      vertex   1.049998e+01 3.498916e+01 -2.500000e+01
    endloop
  endfacet
  facet normal -0.000000e+00 -1.000000e+00 -0.000000e+00
    outer loop
      vertex   1.050002e+01 5.000955e+01 -2.000000e+01
      vertex   1.049998e+01 5.000955e+01 -2.000000e+01
      vertex   1.050002e+01 5.000955e+01 -2.500000e+01
    endloop
  endfacet
  facet normal 0.000000e+00 -1.000000e+00 0.000000e+00
    outer loop
      vertex   1.050002e+01 5.000955e+01 -2.500000e+01
      vertex   1.049998e+01 5.000955e+01 -2.000000e+01
      vertex   1.049998e+01 5.000955e+01 -2.500000e+01
    endloop
  endfacet
  facet normal -9.962008e-01 -8.708569e-02 0.000000e+00
    outer loop
      vertex   1.449998e+01 5.000955e+01 -2.500000e+01
      vertex   1.449998e+01 5.000955e+01 -2.000000e+01
      vertex   1.447130e+01 5.033761e+01 -2.500000e+01
    endloop
  endfacet
  facet normal -9.962008e-01 -8.708569e-02 0.000000e+00
    outer loop
      vertex   1.447130e+01 5.033761e+01 -2.500000e+01
      vertex   1.449998e+01 5.000955e+01 -2.000000e+01
      vertex   1.447130e+01 5.033761e+01 -2.000000e+01
    endloop
  endfacet
  facet normal -9.684056e-01 -2.493806e-01 0.000000e+00
    outer loop
      vertex   1.447130e+01 5.033761e+01 -2.500000e+01
      vertex   1.447130e+01 5.033761e+01 -2.000000e+01
      vertex   1.438917e+01 5.065652e+01 -2.500000e+01
    endloop
  endfacet
  facet normal -9.684056e-01 -2.493806e-01 0.000000e+00
    outer loop
      vertex   1.438917e+01 5.065652e+01 -2.500000e+01
      vertex   1.447130e+01 5.033761e+01 -2.000000e+01
      vertex   1.438917e+01 5.065652e+01 -2.000000e+01
    endloop
  endfacet
  facet normal -9.143547e-01 -4.049143e-01 0.000000e+00
    outer loop
      vertex   1.438917e+01 5.065652e+01 -2.500000e+01
      vertex   1.438917e+01 5.065652e+01 -2.000000e+01
      vertex   1.425583e+01 5.095764e+01 -2.500000e+01
    endloop
  endfacet
  facet normal -9.143547e-01 -4.049143e-01 0.000000e+00
    outer loop
      vertex   1.425583e+01 5.095764e+01 -2.500000e+01
      vertex   1.438917e+01 5.065652e+01 -2.000000e+01
      vertex   1.425583e+01 5.095764e+01 -2.000000e+01
    endloop
  endfacet
  facet normal -8.355136e-01 -5.494698e-01 0.000000e+00
    outer loop
      vertex   1.425583e+01 5.095764e+01 -2.500000e+01
      vertex   1.425583e+01 5.095764e+01 -2.000000e+01
      vertex   1.407488e+01 5.123278e+01 -2.500000e+01
    endloop
  endfacet
  facet normal -8.355136e-01 -5.494698e-01 0.000000e+00
    outer loop
      vertex   1.407488e+01 5.123278e+01 -2.500000e+01
      vertex   1.425583e+01 5.095764e+01 -2.000000e+01
      vertex   1.407488e+01 5.123278e+01 -2.000000e+01
    endloop
  endfacet
  facet normal -7.340199e-01 -6.791280e-01 0.000000e+00
    outer loop
      vertex   1.407488e+01 5.123278e+01 -2.500000e+01
      vertex   1.407488e+01 5.123278e+01 -2.000000e+01
      vertex   1.385123e+01 5.147451e+01 -2.500000e+01
    endloop
  endfacet
  facet normal -7.340199e-01 -6.791280e-01 0.000000e+00
    outer loop
      vertex   1.385123e+01 5.147451e+01 -2.500000e+01
      vertex   1.407488e+01 5.123278e+01 -2.000000e+01
      vertex   1.385123e+01 5.147451e+01 -2.000000e+01
    endloop
  endfacet
  facet normal -6.126252e-01 -7.903735e-01 0.000000e+00
    outer loop
      vertex   1.385123e+01 5.147451e+01 -2.500000e+01
      vertex   1.385123e+01 5.147451e+01 -2.000000e+01
      vertex   1.359095e+01 5.167626e+01 -2.500000e+01
    endloop
  endfacet
  facet normal -6.126252e-01 -7.903735e-01 0.000000e+00
    outer loop
      vertex   1.359095e+01 5.167626e+01 -2.500000e+01
      vertex   1.385123e+01 5.147451e+01 -2.000000e+01
      vertex   1.359095e+01 5.167626e+01 -2.000000e+01
    endloop
  endfacet
  facet normal -4.746210e-01 -8.801903e-01 0.000000e+00
    outer loop
      vertex   1.359095e+01 5.167626e+01 -2.500000e+01
      vertex   1.359095e+01 5.167626e+01 -2.000000e+01
      vertex   1.330109e+01 5.183256e+01 -2.500000e+01
    endloop
  endfacet
  facet normal -4.746210e-01 -8.801903e-01 0.000000e+00
    outer loop
      vertex   1.330109e+01 5.183256e+01 -2.500000e+01
      vertex   1.359095e+01 5.167626e+01 -2.000000e+01
      vertex   1.330109e+01 5.183256e+01 -2.000000e+01
    endloop
  endfacet
  facet normal -3.237487e-01 -9.461431e-01 0.000000e+00
    outer loop
      vertex   1.330109e+01 5.183256e+01 -2.500000e+01
      vertex   1.330109e+01 5.183256e+01 -2.000000e+01
      vertex   1.298951e+01 5.193917e+01 -2.500000e+01
    endloop
  endfacet
  facet normal -3.237487e-01 -9.461431e-01 0.000000e+00
    outer loop
      vertex   1.298951e+01 5.193917e+01 -2.500000e+01
      vertex   1.330109e+01 5.183256e+01 -2.000000e+01
      vertex   1.298951e+01 5.193917e+01 -2.000000e+01
    endloop
  endfacet
  facet normal -1.640989e-01 -9.864439e-01 0.000000e+00
    outer loop
      vertex   1.298951e+01 5.193917e+01 -2.500000e+01
      vertex   1.298951e+01 5.193917e+01 -2.000000e+01
      vertex   1.266466e+01 5.199321e+01 -2.500000e+01
    endloop
  endfacet
  facet normal -1.640989e-01 -9.864439e-01 0.000000e+00
    outer loop
      vertex   1.266466e+01 5.199321e+01 -2.500000e+01
      vertex   1.298951e+01 5.193917e+01 -2.000000e+01
      vertex   1.266466e+01 5.199321e+01 -2.000000e+01
    endloop
  endfacet
  facet normal 0.000000e+00 -1.000000e+00 0.000000e+00
    outer loop
      vertex   1.266466e+01 5.199321e+01 -2.500000e+01
      vertex   1.266466e+01 5.199321e+01 -2.000000e+01
      vertex   1.233534e+01 5.199321e+01 -2.500000e+01
    endloop
  endfacet
  facet normal 0.000000e+00 -1.000000e+00 0.000000e+00
    outer loop
      vertex   1.233534e+01 5.199321e+01 -2.500000e+01
      vertex   1.266466e+01 5.199321e+01 -2.000000e+01
      vertex   1.233534e+01 5.199321e+01 -2.000000e+01
    endloop
  endfacet
  facet normal 1.640989e-01 -9.864439e-01 0.000000e+00
    outer loop
      vertex   1.233534e+01 5.199321e+01 -2.500000e+01
      vertex   1.233534e+01 5.199321e+01 -2.000000e+01
      vertex   1.201049e+01 5.193917e+01 -2.500000e+01
    endloop
  endfacet
  facet normal 1.640989e-01 -9.864439e-01 0.000000e+00
    outer loop
      vertex   1.201049e+01 5.193917e+01 -2.500000e+01
      vertex   1.233534e+01 5.199321e+01 -2.000000e+01
      vertex   1.201049e+01 5.193917e+01 -2.000000e+01
    endloop
  endfacet
  facet normal 3.237487e-01 -9.461431e-01 0.000000e+00
    outer loop
      vertex   1.201049e+01 5.193917e+01 -2.500000e+01
      vertex   1.201049e+01 5.193917e+01 -2.000000e+01
      vertex   1.169891e+01 5.183256e+01 -2.500000e+01
    endloop
  endfacet
  facet normal 3.237487e-01 -9.461431e-01 0.000000e+00
    outer loop
      vertex   1.169891e+01 5.183256e+01 -2.500000e+01
      vertex   1.201049e+01 5.193917e+01 -2.000000e+01
      vertex   1.169891e+01 5.183256e+01 -2.000000e+01
    endloop
  endfacet
  facet normal 4.746210e-01 -8.801903e-01 0.000000e+00
    outer loop
      vertex   1.169891e+01 5.183256e+01 -2.500000e+01
      vertex   1.169891e+01 5.183256e+01 -2.000000e+01
      vertex   1.140905e+01 5.167626e+01 -2.500000e+01
    endloop
  endfacet
  facet normal 4.746210e-01 -8.801903e-01 0.000000e+00
    outer loop
      vertex   1.140905e+01 5.167626e+01 -2.500000e+01
      vertex   1.169891e+01 5.183256e+01 -2.000000e+01
      vertex   1.140905e+01 5.167626e+01 -2.000000e+01
    endloop
  endfacet
  facet normal 6.126252e-01 -7.903735e-01 0.000000e+00
    outer loop
      vertex   1.140905e+01 5.167626e+01 -2.500000e+01
      vertex   1.140905e+01 5.167626e+01 -2.000000e+01
      vertex   1.114877e+01 5.147451e+01 -2.500000e+01
    endloop
  endfacet
  facet normal 6.126252e-01 -7.903735e-01 0.000000e+00
    outer loop
      vertex   1.114877e+01 5.147451e+01 -2.500000e+01
      vertex   1.140905e+01 5.167626e+01 -2.000000e+01
      vertex   1.114877e+01 5.147451e+01 -2.000000e+01
    endloop
  endfacet
  facet normal 7.340199e-01 -6.791280e-01 0.000000e+00
    outer loop
      vertex   1.114877e+01 5.147451e+01 -2.500000e+01
      vertex   1.114877e+01 5.147451e+01 -2.000000e+01
      vertex   1.092512e+01 5.123278e+01 -2.500000e+01
    endloop
  endfacet
  facet normal 7.340199e-01 -6.791280e-01 0.000000e+00
    outer loop
      vertex   1.092512e+01 5.123278e+01 -2.500000e+01
      vertex   1.114877e+01 5.147451e+01 -2.000000e+01
      vertex   1.092512e+01 5.123278e+01 -2.000000e+01
    endloop
  endfacet
  facet normal 8.355136e-01 -5.494698e-01 0.000000e+00
    outer loop
      vertex   1.092512e+01 5.123278e+01 -2.500000e+01
      vertex   1.092512e+01 5.123278e+01 -2.000000e+01
      vertex   1.074417e+01 5.095764e+01 -2.500000e+01
    endloop
  endfacet
  facet normal 8.355136e-01 -5.494698e-01 0.000000e+00
    outer loop
      vertex   1.074417e+01 5.095764e+01 -2.500000e+01
      vertex   1.092512e+01 5.123278e+01 -2.000000e+01
      vertex   1.074417e+01 5.095764e+01 -2.000000e+01
    endloop
  endfacet
  facet normal 9.143547e-01 -4.049143e-01 0.000000e+00
    outer loop
      vertex   1.074417e+01 5.095764e+01 -2.500000e+01
      vertex   1.074417e+01 5.095764e+01 -2.000000e+01
      vertex   1.061083e+01 5.065652e+01 -2.500000e+01
    endloop
  endfacet
  facet normal 9.143547e-01 -4.049143e-01 0.000000e+00
    outer loop
      vertex   1.061083e+01 5.065652e+01 -2.500000e+01
      vertex   1.074417e+01 5.095764e+01 -2.000000e+01
      vertex   1.061083e+01 5.065652e+01 -2.000000e+01
    endloop
  endfacet
  facet normal 9.684056e-01 -2.493806e-01 0.000000e+00
    outer loop
      vertex   1.061083e+01 5.065652e+01 -2.500000e+01
      vertex   1.061083e+01 5.065652e+01 -2.000000e+01
      vertex   1.052870e+01 5.033761e+01 -2.500000e+01
    endloop
  endfacet
  facet normal 9.684056e-01 -2.493806e-01 0.000000e+00
    outer loop
      vertex   1.052870e+01 5.033761e+01 -2.500000e+01
      vertex   1.061083e+01 5.065652e+01 -2.000000e+01
      vertex   1.052870e+01 5.033761e+01 -2.000000e+01
    endloop
  endfacet
  facet normal 9.962008e-01 -8.708569e-02 0.000000e+00
    outer loop
      vertex   1.052870e+01 5.033761e+01 -2.500000e+01
      vertex   1.052870e+01 5.033761e+01 -2.000000e+01
      vertex   1.050002e+01 5.000955e+01 -2.500000e+01
    endloop
  endfacet
  facet normal 9.962008e-01 -8.708569e-02 0.000000e+00
    outer loop
      vertex   1.050002e+01 5.000955e+01 -2.500000e+01
      vertex   1.052870e+01 5.033761e+01 -2.000000e+01
      vertex   1.050002e+01 5.000955e+01 -2.000000e+01
    endloop
  endfacet
  facet normal 1.000000e+00 0.000000e+00 -0.000000e+00
    outer loop
      vertex   5.000000e+00 7.500000e+01 -2.000000e+01
      vertex   5.000000e+00 7.500000e+01 1.000000e+01
      vertex   5.000000e+00 -5.500000e+01 -2.000000e+01
    endloop
  endfacet
  facet normal 1.000000e+00 0.000000e+00 0.000000e+00
    outer loop
      vertex   5.000000e+00 -5.500000e+01 -2.000000e+01
      vertex   5.000000e+00 7.500000e+01 1.000000e+01
      vertex   5.000000e+00 -5.500000e+01 1.000000e+01
    endloop
  endfacet
  facet normal 0.000000e+00 0.000000e+00 -1.000000e+00
    outer loop
      vertex   5.000000e+00 -5.500000e+01 -2.500000e+01
      vertex   1.340746e+01 1.067231e+01 -2.500000e+01
      vertex   2.000000e+01 -5.000000e+00 -2.500000e+01
    endloop
  endfacet
  facet normal 0.000000e+00 0.000000e+00 -1.000000e+00
    outer loop
      vertex   2.000000e+01 -5.000000e+00 -2.500000e+01
      vertex   1.340746e+01 1.067231e+01 -2.500000e+01
      vertex   1.367505e+01 1.083628e+01 -2.500000e+01
    endloop
  endfacet
  facet normal 0.000000e+00 0.000000e+00 -1.000000e+00
    outer loop
      vertex   2.000000e+01 -5.000000e+00 -2.500000e+01
      vertex   1.367505e+01 1.083628e+01 -2.500000e+01
      vertex   1.391369e+01 1.104011e+01 -2.500000e+01
    endloop
  endfacet
  facet normal 0.000000e+00 0.000000e+00 -1.000000e+00
    outer loop
      vertex   0.000000e+00 -5.500000e+01 -2.500000e+01
      vertex   1.049948e+01 1.245432e+01 -2.500000e+01
      vertex   5.000000e+00 -5.500000e+01 -2.500000e+01
    endloop
  endfacet
  facet normal 0.000000e+00 0.000000e+00 -1.000000e+00
    outer loop
      vertex   5.000000e+00 -5.500000e+01 -2.500000e+01
      vertex   1.049948e+01 1.245432e+01 -2.500000e+01
      vertex   1.052410e+01 1.214145e+01 -2.500000e+01
    endloop
  endfacet
  facet normal 0.000000e+00 0.000000e+00 -1.000000e+00
    outer loop
      vertex   5.000000e+00 -5.500000e+01 -2.500000e+01
      vertex   1.052410e+01 1.214145e+01 -2.500000e+01
      vertex   1.059737e+01 1.183628e+01 -2.500000e+01
    endloop
  endfacet
  facet normal 0.000000e+00 0.000000e+00 -1.000000e+00
    outer loop
      vertex   0.000000e+00 -5.500000e+01 -2.500000e+01
      vertex   0.000000e+00 7.500000e+01 -2.500000e+01
      vertex   1.049948e+01 1.245432e+01 -2.500000e+01
    endloop
  endfacet
  facet normal 0.000000e+00 0.000000e+00 -1.000000e+00
    outer loop
      vertex   1.049948e+01 1.245432e+01 -2.500000e+01
      vertex   0.000000e+00 7.500000e+01 -2.500000e+01
      vertex   1.049948e+01 2.745432e+01 -2.500000e+01
    endloop
  endfacet
  facet normal 0.000000e+00 0.000000e+00 -1.000000e+00
    outer loop
      vertex   1.049948e+01 2.745432e+01 -2.500000e+01
      vertex   0.000000e+00 7.500000e+01 -2.500000e+01
      vertex   1.049998e+01 3.498916e+01 -2.500000e+01
    endloop
  endfacet
  facet normal 0.000000e+00 0.000000e+00 -1.000000e+00
    outer loop
      vertex   1.049948e+01 2.745432e+01 -2.500000e+01
      vertex   1.049998e+01 3.498916e+01 -2.500000e+01
      vertex   1.051861e+01 2.777220e+01 -2.500000e+01
    endloop
  endfacet
  facet normal 0.000000e+00 0.000000e+00 -1.000000e+00
    outer loop
      vertex   1.051861e+01 2.777220e+01 -2.500000e+01
      vertex   1.049998e+01 3.498916e+01 -2.500000e+01
      vertex   1.052460e+01 3.467629e+01 -2.500000e+01
    endloop
  endfacet
  facet normal 0.000000e+00 0.000000e+00 -1.000000e+00
    outer loop
      vertex   1.051861e+01 2.777220e+01 -2.500000e+01
      vertex   1.052460e+01 3.467629e+01 -2.500000e+01
      vertex   1.058691e+01 2.808317e+01 -2.500000e+01
    endloop
  endfacet
  facet normal 0.000000e+00 0.000000e+00 -1.000000e+00
    outer loop
      vertex   1.058691e+01 2.808317e+01 -2.500000e+01
      vertex   1.052460e+01 3.467629e+01 -2.500000e+01
      vertex   1.059786e+01 3.437113e+01 -2.500000e+01
    endloop
  endfacet
  facet normal 0.000000e+00 0.000000e+00 -1.000000e+00
    outer loop
      vertex   1.058691e+01 2.808317e+01 -2.500000e+01
      vertex   1.059786e+01 3.437113e+01 -2.500000e+01
      vertex   1.070370e+01 2.837937e+01 -2.500000e+01
    endloop
  endfacet
  facet normal 0.000000e+00 0.000000e+00 -1.000000e+00
    outer loop
      vertex   1.070370e+01 2.837937e+01 -2.500000e+01
      vertex   1.059786e+01 3.437113e+01 -2.500000e+01
      vertex   1.071796e+01 3.408118e+01 -2.500000e+01
    endloop
  endfacet
  facet normal 0.000000e+00 0.000000e+00 -1.000000e+00
    outer loop
      vertex   1.070370e+01 2.837937e+01 -2.500000e+01
      vertex   1.071796e+01 3.408118e+01 -2.500000e+01
      vertex   1.086601e+01 2.865329e+01 -2.500000e+01
    endloop
  endfacet
  facet normal 0.000000e+00 0.000000e+00 -1.000000e+00
    outer loop
      vertex   1.086601e+01 2.865329e+01 -2.500000e+01
      vertex   1.071796e+01 3.408118e+01 -2.500000e+01
      vertex   1.088194e+01 3.381359e+01 -2.500000e+01
    endloop
  endfacet
  facet normal 0.000000e+00 0.000000e+00 -1.000000e+00
    outer loop
      vertex   1.086601e+01 2.865329e+01 -2.500000e+01
      vertex   1.088194e+01 3.381359e+01 -2.500000e+01
      vertex   1.106973e+01 2.889797e+01 -2.500000e+01
    endloop
  endfacet
  facet normal 0.000000e+00 0.000000e+00 -1.000000e+00
    outer loop
      vertex   1.106973e+01 2.889797e+01 -2.500000e+01
      vertex   1.088194e+01 3.381359e+01 -2.500000e+01
      vertex   1.108576e+01 3.357495e+01 -2.500000e+01
    endloop
  endfacet
  facet normal 0.000000e+00 0.000000e+00 -1.000000e+00
    outer loop
      vertex   1.106973e+01 2.889797e+01 -2.500000e+01
      vertex   1.108576e+01 3.357495e+01 -2.500000e+01
      vertex   1.130969e+01 2.910723e+01 -2.500000e+01
    endloop
  endfacet
  facet normal 0.000000e+00 0.000000e+00 -1.000000e+00
    outer loop
      vertex   1.130969e+01 2.910723e+01 -2.500000e+01
      vertex   1.108576e+01 3.357495e+01 -2.500000e+01
      vertex   1.132441e+01 3.337113e+01 -2.500000e+01
    endloop
  endfacet
  facet normal 0.000000e+00 0.000000e+00 -1.000000e+00
    outer loop
      vertex   1.130969e+01 2.910723e+01 -2.500000e+01
      vertex   1.132441e+01 3.337113e+01 -2.500000e+01
      vertex   1.157983e+01 2.927575e+01 -2.500000e+01
    endloop
  endfacet
  facet normal 0.000000e+00 0.000000e+00 -1.000000e+00
    outer loop
      vertex   1.157983e+01 2.927575e+01 -2.500000e+01
      vertex   1.132441e+01 3.337113e+01 -2.500000e+01
      vertex   1.159200e+01 3.320715e+01 -2.500000e+01
    endloop
  endfacet
  facet normal 0.000000e+00 0.000000e+00 -1.000000e+00
    outer loop
      vertex   1.157983e+01 2.927575e+01 -2.500000e+01
      vertex   1.159200e+01 3.320715e+01 -2.500000e+01
      vertex   1.187328e+01 2.939927e+01 -2.500000e+01
    endloop
  endfacet
  facet normal 0.000000e+00 0.000000e+00 -1.000000e+00
    outer loop
      vertex   1.187328e+01 2.939927e+01 -2.500000e+01
      vertex   1.159200e+01 3.320715e+01 -2.500000e+01
      vertex   1.188194e+01 3.308705e+01 -2.500000e+01
    endloop
  endfacet
  facet normal 0.000000e+00 0.000000e+00 -1.000000e+00
    outer loop
      vertex   1.187328e+01 2.939927e+01 -2.500000e+01
      vertex   1.188194e+01 3.308705e+01 -2.500000e+01
      vertex   1.218262e+01 2.947466e+01 -2.500000e+01
    endloop
  endfacet
  facet normal 0.000000e+00 0.000000e+00 -1.000000e+00
    outer loop
      vertex   1.218262e+01 2.947466e+01 -2.500000e+01
      vertex   1.188194e+01 3.308705e+01 -2.500000e+01
      vertex   1.218711e+01 3.301378e+01 -2.500000e+01
    endloop
  endfacet
  facet normal 0.000000e+00 0.000000e+00 -1.000000e+00
    outer loop
      vertex   1.218262e+01 2.947466e+01 -2.500000e+01
      vertex   1.218711e+01 3.301378e+01 -2.500000e+01
      vertex   1.250000e+01 2.950000e+01 -2.500000e+01
    endloop
  endfacet
  facet normal 0.000000e+00 0.000000e+00 -1.000000e+00
    outer loop
      vertex   1.250000e+01 2.950000e+01 -2.500000e+01
      vertex   1.218711e+01 3.301378e+01 -2.500000e+01
      vertex   1.249998e+01 3.298916e+01 -2.500000e+01
    endloop
  endfacet
  facet normal 0.000000e+00 0.000000e+00 -1.000000e+00
    outer loop
      vertex   1.250000e+01 2.950000e+01 -2.500000e+01
      vertex   1.249998e+01 3.298916e+01 -2.500000e+01
      vertex   1.281285e+01 3.301378e+01 -2.500000e+01
    endloop
  endfacet
  facet normal -0.000000e+00 0.000000e+00 -1.000000e+00
    outer loop
      vertex   2.000000e+01 7.500000e+01 -2.500000e+01
      vertex   1.140905e+01 5.167626e+01 -2.500000e+01
      vertex   0.000000e+00 7.500000e+01 -2.500000e+01
    endloop
  endfacet
  facet normal 0.000000e+00 0.000000e+00 -1.000000e+00
    outer loop
      vertex   0.000000e+00 7.500000e+01 -2.500000e+01
      vertex   1.140905e+01 5.167626e+01 -2.500000e+01
      vertex   1.114877e+01 5.147451e+01 -2.500000e+01
    endloop
  endfacet
  facet normal 0.000000e+00 0.000000e+00 -1.000000e+00
    outer loop
      vertex   0.000000e+00 7.500000e+01 -2.500000e+01
      vertex   1.114877e+01 5.147451e+01 -2.500000e+01
      vertex   1.092512e+01 5.123278e+01 -2.500000e+01
    endloop
  endfacet
  facet normal 0.000000e+00 0.000000e+00 -1.000000e+00
    outer loop
      vertex   2.000000e+01 -5.000000e+00 -2.500000e+01
      vertex   1.449998e+01 3.498916e+01 -2.500000e+01
      vertex   2.000000e+01 7.500000e+01 -2.500000e+01
    endloop
  endfacet
  facet normal 0.000000e+00 0.000000e+00 -1.000000e+00
    outer loop
      vertex   2.000000e+01 7.500000e+01 -2.500000e+01
      vertex   1.449998e+01 3.498916e+01 -2.500000e+01
      vertex   1.449998e+01 5.000955e+01 -2.500000e+01
    endloop
  endfacet
  facet normal 0.000000e+00 0.000000e+00 -1.000000e+00
    outer loop
      vertex   2.000000e+01 7.500000e+01 -2.500000e+01
      vertex   1.449998e+01 5.000955e+01 -2.500000e+01
      vertex   1.447130e+01 5.033761e+01 -2.500000e+01
    endloop
  endfacet
  facet normal 0.000000e+00 0.000000e+00 -1.000000e+00
    outer loop
      vertex   1.447486e+01 1.214145e+01 -2.500000e+01
      vertex   1.449948e+01 1.245432e+01 -2.500000e+01
      vertex   2.000000e+01 -5.000000e+00 -2.500000e+01
    endloop
  endfacet
  facet normal 0.000000e+00 0.000000e+00 -1.000000e+00
    outer loop
      vertex   2.000000e+01 -5.000000e+00 -2.500000e+01
      vertex   1.449948e+01 1.245432e+01 -2.500000e+01
      vertex   1.449948e+01 2.745432e+01 -2.500000e+01
    endloop
  endfacet
  facet normal 0.000000e+00 0.000000e+00 -1.000000e+00
    outer loop
      vertex   2.000000e+01 -5.000000e+00 -2.500000e+01
      vertex   1.449948e+01 2.745432e+01 -2.500000e+01
      vertex   1.449998e+01 3.498916e+01 -2.500000e+01
    endloop
  endfacet
  facet normal 0.000000e+00 0.000000e+00 -1.000000e+00
    outer loop
      vertex   1.449998e+01 3.498916e+01 -2.500000e+01
      vertex   1.449948e+01 2.745432e+01 -2.500000e+01
      vertex   1.448139e+01 2.777220e+01 -2.500000e+01
    endloop
  endfacet
  facet normal 0.000000e+00 0.000000e+00 -1.000000e+00
    outer loop
      vertex   1.449998e+01 3.498916e+01 -2.500000e+01
      vertex   1.448139e+01 2.777220e+01 -2.500000e+01
      vertex   1.447535e+01 3.467629e+01 -2.500000e+01
    endloop
  endfacet
  facet normal 0.000000e+00 -0.000000e+00 -1.000000e+00
    outer loop
      vertex   1.447535e+01 3.467629e+01 -2.500000e+01
      vertex   1.448139e+01 2.777220e+01 -2.500000e+01
      vertex   1.441309e+01 2.808317e+01 -2.500000e+01
    endloop
  endfacet
  facet normal 0.000000e+00 0.000000e+00 -1.000000e+00
    outer loop
      vertex   1.447535e+01 3.467629e+01 -2.500000e+01
      vertex   1.441309e+01 2.808317e+01 -2.500000e+01
      vertex   1.440209e+01 3.437113e+01 -2.500000e+01
    endloop
  endfacet
  facet normal 0.000000e+00 -0.000000e+00 -1.000000e+00
    outer loop
      vertex   1.440209e+01 3.437113e+01 -2.500000e+01
      vertex   1.441309e+01 2.808317e+01 -2.500000e+01
      vertex   1.429630e+01 2.837937e+01 -2.500000e+01
    endloop
  endfacet
  facet normal 0.000000e+00 0.000000e+00 -1.000000e+00
    outer loop
      vertex   1.440209e+01 3.437113e+01 -2.500000e+01
      vertex   1.429630e+01 2.837937e+01 -2.500000e+01
      vertex   1.428199e+01 3.408118e+01 -2.500000e+01
    endloop
  endfacet
  facet normal 0.000000e+00 -0.000000e+00 -1.000000e+00
    outer loop
      vertex   1.428199e+01 3.408118e+01 -2.500000e+01
      vertex   1.429630e+01 2.837937e+01 -2.500000e+01
      vertex   1.413399e+01 2.865329e+01 -2.500000e+01
    endloop
  endfacet
  facet normal 0.000000e+00 0.000000e+00 -1.000000e+00
    outer loop
      vertex   1.428199e+01 3.408118e+01 -2.500000e+01
      vertex   1.413399e+01 2.865329e+01 -2.500000e+01
      vertex   1.411801e+01 3.381359e+01 -2.500000e+01
    endloop
  endfacet
  facet normal 0.000000e+00 -0.000000e+00 -1.000000e+00
    outer loop
      vertex   1.411801e+01 3.381359e+01 -2.500000e+01
      vertex   1.413399e+01 2.865329e+01 -2.500000e+01
      vertex   1.393027e+01 2.889797e+01 -2.500000e+01
    endloop
  endfacet
  facet normal 0.000000e+00 0.000000e+00 -1.000000e+00
    outer loop
      vertex   1.411801e+01 3.381359e+01 -2.500000e+01
      vertex   1.393027e+01 2.889797e+01 -2.500000e+01
      vertex   1.391419e+01 3.357495e+01 -2.500000e+01
    endloop
  endfacet
  facet normal 0.000000e+00 -0.000000e+00 -1.000000e+00
    outer loop
      vertex   1.391419e+01 3.357495e+01 -2.500000e+01
      vertex   1.393027e+01 2.889797e+01 -2.500000e+01
      vertex   1.369031e+01 2.910723e+01 -2.500000e+01
    endloop
  endfacet
  facet normal 0.000000e+00 0.000000e+00 -1.000000e+00
    outer loop
      vertex   1.391419e+01 3.357495e+01 -2.500000e+01
      vertex   1.369031e+01 2.910723e+01 -2.500000e+01
      vertex   1.367555e+01 3.337113e+01 -2.500000e+01
    endloop
  endfacet
  facet normal 0.000000e+00 -0.000000e+00 -1.000000e+00
    outer loop
      vertex   1.367555e+01 3.337113e+01 -2.500000e+01
      vertex   1.369031e+01 2.910723e+01 -2.500000e+01
      vertex   1.342017e+01 2.927575e+01 -2.500000e+01
    endloop
  endfacet
  facet normal 0.000000e+00 0.000000e+00 -1.000000e+00
    outer loop
      vertex   1.367555e+01 3.337113e+01 -2.500000e+01
      vertex   1.342017e+01 2.927575e+01 -2.500000e+01
      vertex   1.340796e+01 3.320715e+01 -2.500000e+01
    endloop
  endfacet
  facet normal 0.000000e+00 -0.000000e+00 -1.000000e+00
    outer loop
      vertex   1.340796e+01 3.320715e+01 -2.500000e+01
      vertex   1.342017e+01 2.927575e+01 -2.500000e+01
      vertex   1.312672e+01 2.939927e+01 -2.500000e+01
    endloop
  endfacet
  facet normal 0.000000e+00 0.000000e+00 -1.000000e+00
    outer loop
      vertex   1.340796e+01 3.320715e+01 -2.500000e+01
      vertex   1.312672e+01 2.939927e+01 -2.500000e+01
      vertex   1.311801e+01 3.308705e+01 -2.500000e+01
    endloop
  endfacet
  facet normal 0.000000e+00 -0.000000e+00 -1.000000e+00
    outer loop
      vertex   1.311801e+01 3.308705e+01 -2.500000e+01
      vertex   1.312672e+01 2.939927e+01 -2.500000e+01
      vertex   1.281738e+01 2.947466e+01 -2.500000e+01
    endloop
  endfacet
  facet normal 0.000000e+00 0.000000e+00 -1.000000e+00
    outer loop
      vertex   1.311801e+01 3.308705e+01 -2.500000e+01
      vertex   1.281738e+01 2.947466e+01 -2.500000e+01
      vertex   1.281285e+01 3.301378e+01 -2.500000e+01
    endloop
  endfacet
  facet normal 0.000000e+00 -0.000000e+00 -1.000000e+00
    outer loop
      vertex   1.281285e+01 3.301378e+01 -2.500000e+01
      vertex   1.281738e+01 2.947466e+01 -2.500000e+01
      vertex   1.250000e+01 2.950000e+01 -2.500000e+01
    endloop
  endfacet
  facet normal 0.000000e+00 0.000000e+00 -1.000000e+00
    outer loop
      vertex   1.051861e+01 2.777220e+01 -2.500000e+01
      vertex   1.050052e+01 2.745432e+01 -2.500000e+01
      vertex   1.049948e+01 2.745432e+01 -2.500000e+01
    endloop
  endfacet
  facet normal 0.000000e+00 -0.000000e+00 -1.000000e+00
    outer loop
      vertex   1.059737e+01 1.183628e+01 -2.500000e+01
      vertex   1.071747e+01 1.154634e+01 -2.500000e+01
      vertex   5.000000e+00 -5.500000e+01 -2.500000e+01
    endloop
  endfacet
  facet normal 0.000000e+00 0.000000e+00 -1.000000e+00
    outer loop
      vertex   5.000000e+00 -5.500000e+01 -2.500000e+01
      vertex   1.071747e+01 1.154634e+01 -2.500000e+01
      vertex   1.088144e+01 1.127875e+01 -2.500000e+01
    endloop
  endfacet
  facet normal 0.000000e+00 0.000000e+00 -1.000000e+00
    outer loop
      vertex   5.000000e+00 -5.500000e+01 -2.500000e+01
      vertex   1.088144e+01 1.127875e+01 -2.500000e+01
      vertex   1.108526e+01 1.104011e+01 -2.500000e+01
    endloop
  endfacet
  facet normal 0.000000e+00 -0.000000e+00 -1.000000e+00
    outer loop
      vertex   1.108526e+01 1.104011e+01 -2.500000e+01
      vertex   1.132391e+01 1.083628e+01 -2.500000e+01
      vertex   5.000000e+00 -5.500000e+01 -2.500000e+01
    endloop
  endfacet
  facet normal 0.000000e+00 0.000000e+00 -1.000000e+00
    outer loop
      vertex   5.000000e+00 -5.500000e+01 -2.500000e+01
      vertex   1.132391e+01 1.083628e+01 -2.500000e+01
      vertex   1.159150e+01 1.067231e+01 -2.500000e+01
    endloop
  endfacet
  facet normal 0.000000e+00 0.000000e+00 -1.000000e+00
    outer loop
      vertex   5.000000e+00 -5.500000e+01 -2.500000e+01
      vertex   1.159150e+01 1.067231e+01 -2.500000e+01
      vertex   1.188144e+01 1.055221e+01 -2.500000e+01
    endloop
  endfacet
  facet normal 0.000000e+00 -0.000000e+00 -1.000000e+00
    outer loop
      vertex   1.188144e+01 1.055221e+01 -2.500000e+01
      vertex   1.218661e+01 1.047894e+01 -2.500000e+01
      vertex   5.000000e+00 -5.500000e+01 -2.500000e+01
    endloop
  endfacet
  facet normal 0.000000e+00 0.000000e+00 -1.000000e+00
    outer loop
      vertex   5.000000e+00 -5.500000e+01 -2.500000e+01
      vertex   1.218661e+01 1.047894e+01 -2.500000e+01
      vertex   1.249948e+01 1.045432e+01 -2.500000e+01
    endloop
  endfacet
  facet normal 0.000000e+00 0.000000e+00 -1.000000e+00
    outer loop
      vertex   5.000000e+00 -5.500000e+01 -2.500000e+01
      vertex   1.249948e+01 1.045432e+01 -2.500000e+01
      vertex   1.281235e+01 1.047894e+01 -2.500000e+01
    endloop
  endfacet
  facet normal 0.000000e+00 -0.000000e+00 -1.000000e+00
    outer loop
      vertex   1.281235e+01 1.047894e+01 -2.500000e+01
      vertex   1.311751e+01 1.055221e+01 -2.500000e+01
      vertex   5.000000e+00 -5.500000e+01 -2.500000e+01
    endloop
  endfacet
  facet normal 0.000000e+00 0.000000e+00 -1.000000e+00
    outer loop
      vertex   5.000000e+00 -5.500000e+01 -2.500000e+01
      vertex   1.311751e+01 1.055221e+01 -2.500000e+01
      vertex   1.340746e+01 1.067231e+01 -2.500000e+01
    endloop
  endfacet
  facet normal 0.000000e+00 0.000000e+00 -1.000000e+00
    outer loop
      vertex   1.391369e+01 1.104011e+01 -2.500000e+01
      vertex   1.411751e+01 1.127875e+01 -2.500000e+01
      vertex   2.000000e+01 -5.000000e+00 -2.500000e+01
    endloop
  endfacet
  facet normal 0.000000e+00 0.000000e+00 -1.000000e+00
    outer loop
      vertex   2.000000e+01 -5.000000e+00 -2.500000e+01
      vertex   1.411751e+01 1.127875e+01 -2.500000e+01
      vertex   1.428149e+01 1.154634e+01 -2.500000e+01
    endloop
  endfacet
  facet normal 0.000000e+00 0.000000e+00 -1.000000e+00
    outer loop
      vertex   2.000000e+01 -5.000000e+00 -2.500000e+01
      vertex   1.428149e+01 1.154634e+01 -2.500000e+01
      vertex   1.440159e+01 1.183628e+01 -2.500000e+01
    endloop
  endfacet
  facet normal 0.000000e+00 0.000000e+00 -1.000000e+00
    outer loop
      vertex   1.440159e+01 1.183628e+01 -2.500000e+01
      vertex   1.447486e+01 1.214145e+01 -2.500000e+01
      vertex   2.000000e+01 -5.000000e+00 -2.500000e+01
    endloop
  endfacet
  facet normal 0.000000e+00 0.000000e+00 -1.000000e+00
    outer loop
      vertex   1.447130e+01 5.033761e+01 -2.500000e+01
      vertex   1.438917e+01 5.065652e+01 -2.500000e+01
      vertex   2.000000e+01 7.500000e+01 -2.500000e+01
    endloop
  endfacet
  facet normal 0.000000e+00 0.000000e+00 -1.000000e+00
    outer loop
      vertex   2.000000e+01 7.500000e+01 -2.500000e+01
      vertex   1.438917e+01 5.065652e+01 -2.500000e+01
      vertex   1.425583e+01 5.095764e+01 -2.500000e+01
    endloop
  endfacet
  facet normal 0.000000e+00 0.000000e+00 -1.000000e+00
    outer loop
      vertex   2.000000e+01 7.500000e+01 -2.500000e+01
      vertex   1.425583e+01 5.095764e+01 -2.500000e+01
      vertex   1.407488e+01 5.123278e+01 -2.500000e+01
    endloop
  endfacet
  facet normal 0.000000e+00 0.000000e+00 -1.000000e+00
    outer loop
      vertex   1.407488e+01 5.123278e+01 -2.500000e+01
      vertex   1.385123e+01 5.147451e+01 -2.500000e+01
      vertex   2.000000e+01 7.500000e+01 -2.500000e+01
    endloop
  endfacet
  facet normal 0.000000e+00 0.000000e+00 -1.000000e+00
    outer loop
      vertex   2.000000e+01 7.500000e+01 -2.500000e+01
      vertex   1.385123e+01 5.147451e+01 -2.500000e+01
      vertex   1.359095e+01 5.167626e+01 -2.500000e+01
    endloop
  endfacet
  facet normal 0.000000e+00 0.000000e+00 -1.000000e+00
    outer loop
      vertex   2.000000e+01 7.500000e+01 -2.500000e+01
      vertex   1.359095e+01 5.167626e+01 -2.500000e+01
      vertex   1.330109e+01 5.183256e+01 -2.500000e+01
    endloop
  endfacet
  facet normal 0.000000e+00 0.000000e+00 -1.000000e+00
    outer loop
      vertex   1.330109e+01 5.183256e+01 -2.500000e+01
      vertex   1.298951e+01 5.193917e+01 -2.500000e+01
      vertex   2.000000e+01 7.500000e+01 -2.500000e+01
    endloop
  endfacet
  facet normal 0.000000e+00 0.000000e+00 -1.000000e+00
    outer loop
      vertex   2.000000e+01 7.500000e+01 -2.500000e+01
      vertex   1.298951e+01 5.193917e+01 -2.500000e+01
      vertex   1.266466e+01 5.199321e+01 -2.500000e+01
    endloop
  endfacet
  facet normal 0.000000e+00 0.000000e+00 -1.000000e+00
    outer loop
      vertex   2.000000e+01 7.500000e+01 -2.500000e+01
      vertex   1.266466e+01 5.199321e+01 -2.500000e+01
      vertex   1.233534e+01 5.199321e+01 -2.500000e+01
    endloop
  endfacet
  facet normal -0.000000e+00 0.000000e+00 -1.000000e+00
    outer loop
      vertex   1.233534e+01 5.199321e+01 -2.500000e+01
      vertex   1.201049e+01 5.193917e+01 -2.500000e+01
      vertex   2.000000e+01 7.500000e+01 -2.500000e+01
    endloop
  endfacet
  facet normal 0.000000e+00 0.000000e+00 -1.000000e+00
    outer loop
      vertex   2.000000e+01 7.500000e+01 -2.500000e+01
      vertex   1.201049e+01 5.193917e+01 -2.500000e+01
      vertex   1.169891e+01 5.183256e+01 -2.500000e+01
    endloop
  endfacet
  facet normal 0.000000e+00 0.000000e+00 -1.000000e+00
    outer loop
      vertex   2.000000e+01 7.500000e+01 -2.500000e+01
      vertex   1.169891e+01 5.183256e+01 -2.500000e+01
      vertex   1.140905e+01 5.167626e+01 -2.500000e+01
    endloop
  endfacet
  facet normal -0.000000e+00 0.000000e+00 -1.000000e+00
    outer loop
      vertex   1.092512e+01 5.123278e+01 -2.500000e+01
      vertex   1.074417e+01 5.095764e+01 -2.500000e+01
      vertex   0.000000e+00 7.500000e+01 -2.500000e+01
    endloop
  endfacet
  facet normal 0.000000e+00 0.000000e+00 -1.000000e+00
    outer loop
      vertex   0.000000e+00 7.500000e+01 -2.500000e+01
      vertex   1.074417e+01 5.095764e+01 -2.500000e+01
      vertex   1.061083e+01 5.065652e+01 -2.500000e+01
    endloop
  endfacet
  facet normal 0.000000e+00 0.000000e+00 -1.000000e+00
    outer loop
      vertex   0.000000e+00 7.500000e+01 -2.500000e+01
      vertex   1.061083e+01 5.065652e+01 -2.500000e+01
      vertex   1.052870e+01 5.033761e+01 -2.500000e+01
    endloop
  endfacet
  facet normal 0.000000e+00 0.000000e+00 -1.000000e+00
    outer loop
      vertex   1.050002e+01 5.000955e+01 -2.500000e+01
      vertex   1.049998e+01 5.000955e+01 -2.500000e+01
      vertex   1.052870e+01 5.033761e+01 -2.500000e+01
    endloop
  endfacet
  facet normal -0.000000e+00 0.000000e+00 -1.000000e+00
    outer loop
      vertex   1.052870e+01 5.033761e+01 -2.500000e+01
      vertex   1.049998e+01 5.000955e+01 -2.500000e+01
      vertex   0.000000e+00 7.500000e+01 -2.500000e+01
    endloop
  endfacet
  facet normal -0.000000e+00 -0.000000e+00 -1.000000e+00
    outer loop
      vertex   1.049998e+01 5.000955e+01 -2.500000e+01
      vertex   1.049998e+01 3.498916e+01 -2.500000e+01
      vertex   0.000000e+00 7.500000e+01 -2.500000e+01
    endloop
  endfacet
  facet normal 0.000000e+00 1.000000e+00 0.000000e+00
    outer loop
      vertex   2.000000e+01 7.500000e+01 -2.500000e+01
      vertex   0.000000e+00 7.500000e+01 -2.500000e+01
      vertex   5.000000e+00 7.500000e+01 -2.000000e+01
    endloop
  endfacet
  facet normal 0.000000e+00 1.000000e+00 0.000000e+00
    outer loop
      vertex   5.000000e+00 7.500000e+01 -2.000000e+01
      vertex   0.000000e+00 7.500000e+01 -2.500000e+01
      vertex   0.000000e+00 7.500000e+01 1.000000e+01
    endloop
  endfacet
  facet normal 0.000000e+00 1.000000e+00 -0.000000e+00
    outer loop
      vertex   5.000000e+00 7.500000e+01 -2.000000e+01
      vertex   0.000000e+00 7.500000e+01 1.000000e+01
      vertex   5.000000e+00 7.500000e+01 1.000000e+01
    endloop
  endfacet
  facet normal -0.000000e+00 1.000000e+00 0.000000e+00
    outer loop
      vertex   5.000000e+00 7.500000e+01 -2.000000e+01
      vertex   2.000000e+01 7.500000e+01 -2.000000e+01
      vertex   2.000000e+01 7.500000e+01 -2.500000e+01
    endloop
  endfacet
  facet normal -0.000000e+00 0.000000e+00 1.000000e+00
    outer loop
      vertex   0.000000e+00 7.500000e+01 1.000000e+01
      vertex   0.000000e+00 -5.500000e+01 1.000000e+01
      vertex   5.000000e+00 7.500000e+01 1.000000e+01
    endloop
  endfacet
  facet normal 0.000000e+00 0.000000e+00 1.000000e+00
    outer loop
      vertex   5.000000e+00 7.500000e+01 1.000000e+01
      vertex   0.000000e+00 -5.500000e+01 1.000000e+01
      vertex   5.000000e+00 -5.500000e+01 1.000000e+01
    endloop
  endfacet
  facet normal 0.000000e+00 -1.000000e+00 0.000000e+00
    outer loop
      vertex   5.000000e+00 -5.500000e+01 -2.500000e+01
      vertex   5.000000e+00 -5.500000e+01 -2.000000e+01
      vertex   0.000000e+00 -5.500000e+01 -2.500000e+01
    endloop
  endfacet
  facet normal 0.000000e+00 -1.000000e+00 0.000000e+00
    outer loop
      vertex   0.000000e+00 -5.500000e+01 -2.500000e+01
      vertex   5.000000e+00 -5.500000e+01 -2.000000e+01
      vertex   0.000000e+00 -5.500000e+01 1.000000e+01
    endloop
  endfacet
  facet normal 0.000000e+00 -1.000000e+00 0.000000e+00
    outer loop
      vertex   0.000000e+00 -5.500000e+01 1.000000e+01
      vertex   5.000000e+00 -5.500000e+01 -2.000000e+01
      vertex   5.000000e+00 -5.500000e+01 1.000000e+01
    endloop
  endfacet
  facet normal -1.000000e+00 0.000000e+00 0.000000e+00
    outer loop
      vertex   0.000000e+00 -5.500000e+01 -2.500000e+01
      vertex   0.000000e+00 -5.500000e+01 1.000000e+01
      vertex   0.000000e+00 7.500000e+01 -2.500000e+01
    endloop
  endfacet
  facet normal -1.000000e+00 0.000000e+00 0.000000e+00
    outer loop
      vertex   0.000000e+00 7.500000e+01 -2.500000e+01
      vertex   0.000000e+00 -5.500000e+01 1.000000e+01
      vertex   0.000000e+00 7.500000e+01 1.000000e+01
    endloop
  endfacet
endsolid
